<svg width="1402" height="692" viewBox="0 0 1402 692" fill="none" xmlns="http://www.w3.org/2000/svg">
<g clip-path="url(#clip0_273_37)">
<path d="M449.5 582.6C447.1 585 443.4 588.4 438.4 592.8C433.6 597 428.5 601 423.1 604.8C417.9 608.6 413.5 611 409.9 612C405.7 613.2 401.9 614.5 398.5 615.9C395.1 617.3 391.4 618.5 387.4 619.5C383.4 620.7 378.4 621.3 372.4 621.3C364 621.3 355 619.8 345.4 616.8C335.8 614 326.8 610.5 318.4 606.3C310 602.3 303.2 598.4 298 594.6C287.6 586.8 279.6 576.3 274 563.1C268.6 549.7 265.9 534 265.9 516C265.9 511 266.4 505.6 267.4 499.8C268.4 493.8 269.6 488.2 271 483C272.4 477.6 273.8 473.3 275.2 470.1C279.4 460.5 284.5 451.1 290.5 441.9C296.7 432.7 304.7 425 314.5 418.8C319.7 415.4 326.3 411.9 334.3 408.3C342.3 404.5 352.8 402.6 365.8 402.6C367.6 402.6 369.5 402.7 371.5 402.9C373.5 402.9 375.5 403 377.5 403.2C388.5 404.4 398.2 407.8 406.6 413.4C415.2 419 421.9 424.9 426.7 431.1C428.9 433.9 430.8 437.6 432.4 442.2C434 446.8 434.8 451.7 434.8 456.9C434.8 459.3 434.6 461.7 434.2 464.1C434 466.5 433.4 468.9 432.4 471.3C430 478.7 426.7 485.6 422.5 492C418.5 498.4 413.5 503.6 407.5 507.6C401.5 511.4 394.3 513.3 385.9 513.3C378.5 513.3 372.8 512.8 368.8 511.8C364.8 510.8 361.5 509.2 358.9 507C356.3 504.6 353.3 501.4 349.9 497.4C347.1 494 345.2 490.2 344.2 486C343.2 481.6 342.7 477.5 342.7 473.7C342.7 469.9 342.7 467.2 342.7 465.6C342.7 460.8 344.7 456 348.7 451.2C352.9 446.2 357.8 442 363.4 438.6C369.2 435.2 374.3 433.5 378.7 433.5C382.7 433.5 385.9 435.1 388.3 438.3C390.7 441.3 392.4 444.7 393.4 448.5C394.6 452.3 395.2 455.3 395.2 457.5C395.2 460.5 394.8 463.9 394 467.7C393.2 471.5 390.5 475.1 385.9 478.5C385.1 479.3 384.3 479.7 383.5 479.7C382.1 479.7 381.4 478.7 381.4 476.7C381.4 475.7 381.7 474.5 382.3 473.1C382.9 471.7 383.9 470.5 385.3 469.5C386.9 468.3 387.9 466.9 388.3 465.3C388.7 463.7 388.9 462.2 388.9 460.8C388.9 459.6 388.8 458.5 388.6 457.5C388.6 456.3 388.6 455.3 388.6 454.5C388.6 452.9 387.7 450.7 385.9 447.9C384.1 444.9 381.7 443.4 378.7 443.4C375.7 443.4 372.1 444.6 367.9 447C363.9 449.2 360.4 452 357.4 455.4C354.4 458.8 352.9 462.2 352.9 465.6C352.9 467.6 354.1 470.7 356.5 474.9C359.1 479.1 362 483.2 365.2 487.2C367.8 490.2 369.6 492.6 370.6 494.4C371.8 496.2 373.4 497.5 375.4 498.3C377.6 498.9 381.6 499.2 387.4 499.2C397.4 499.2 405 496.2 410.2 490.2C415.4 484 419.6 476.6 422.8 468C424 464 424.6 460.2 424.6 456.6C424.6 452.6 424 448.9 422.8 445.5C421.8 442.1 420.5 439.4 418.9 437.4C414.9 432 410.2 428 404.8 425.4C399.4 422.6 392 420.8 382.6 420C380.8 419.8 379 419.7 377.2 419.7C375.6 419.5 374 419.4 372.4 419.4C360.4 419.4 350.8 421.2 343.6 424.8C336.6 428.4 330.5 431.7 325.3 434.7C316.3 440.1 309.1 447 303.7 455.4C298.3 463.8 293.6 472.4 289.6 481.2C288.4 484 287.1 487.9 285.7 492.9C284.5 497.9 283.5 503.1 282.7 508.5C281.9 513.9 281.5 518.8 281.5 523.2C281.5 539.2 282.9 552 285.7 561.6C288.5 571.2 294.6 579.5 304 586.5C309 590.1 315.4 593.8 323.2 597.6C331 601.4 339.2 604.6 347.8 607.2C356.6 610 364.8 611.4 372.4 611.4C380.6 611.4 387 610.3 391.6 608.1C396.2 606.1 401.3 604.2 406.9 602.4C410.3 601.4 414.6 599.4 419.8 596.4C425 593.4 430 590.2 434.8 586.8C439.8 583.4 443.4 580.7 445.6 578.7C447 577.3 448.4 576.6 449.8 576.6C451 576.6 451.6 577.2 451.6 578.4C451.6 579.8 450.9 581.2 449.5 582.6ZM544.851 581.1C539.651 587.3 535.151 591.6 531.351 594C527.551 596.4 524.251 597.6 521.451 597.6C517.851 597.6 514.751 596.2 512.151 593.4C509.751 590.4 507.651 587.2 505.851 583.8C504.251 580.4 502.951 578 501.951 576.6C498.151 580 493.651 583.6 488.451 587.4C483.251 591 478.951 592.8 475.551 592.8C469.151 592.8 464.151 591.2 460.551 588C456.951 584.6 455.151 579.7 455.151 573.3C455.151 566.7 455.951 558.9 457.551 549.9C459.351 540.9 461.551 532 464.151 523.2C466.751 514.2 469.251 506.7 471.651 500.7C472.251 498.9 473.451 497.4 475.251 496.2C477.251 495 479.251 494.4 481.251 494.4C483.651 494.4 485.251 495 486.051 496.2C486.851 497.4 487.251 498.8 487.251 500.4C487.251 502.4 486.851 504.4 486.051 506.4C485.451 508.2 485.151 509.1 485.151 509.1C482.751 515.9 479.951 523 476.751 530.4C473.751 537.8 470.951 546.2 468.351 555.6C468.151 556.8 467.851 558.5 467.451 560.7C467.251 562.9 467.151 565.2 467.151 567.6C467.151 571 467.551 574.2 468.351 577.2C469.351 580 471.151 581.4 473.751 581.4C475.951 581.4 478.851 580.1 482.451 577.5C486.251 574.9 490.051 571.3 493.851 566.7C497.651 562.1 500.651 556.8 502.851 550.8C504.851 545.4 506.651 539.5 508.251 533.1C509.851 526.7 511.251 520.7 512.451 515.1C513.851 509.3 515.151 504.8 516.351 501.6C516.951 500.2 517.851 499.5 519.051 499.5C520.651 499.5 522.051 500.1 523.251 501.3C524.651 502.5 525.151 503.6 524.751 504.6C523.951 506.6 522.851 509.9 521.451 514.5C520.051 519.1 518.651 524.2 517.251 529.8C515.851 535.4 514.551 540.9 513.351 546.3C512.151 551.5 511.151 555.9 510.351 559.5C509.551 563.1 509.151 565.1 509.151 565.5C509.151 568.5 509.451 571.2 510.051 573.6C510.651 576 511.651 578.6 513.051 581.4C514.051 583 515.251 584.8 516.651 586.8C518.251 588.6 519.851 589.5 521.451 589.5C525.251 589.5 528.851 588.2 532.251 585.6C535.851 582.8 538.551 580.1 540.351 577.5C541.751 575.3 543.051 574.2 544.251 574.2C545.451 574.2 546.051 575.3 546.051 577.5C546.051 579.1 545.651 580.3 544.851 581.1ZM635.784 576.9C630.184 584.1 625.084 589.4 620.484 592.8C616.084 596 611.584 598 606.984 598.8C602.584 599.6 597.584 600 591.984 600C586.984 600 582.284 599.6 577.884 598.8C573.484 598 570.284 596.9 568.284 595.5C567.684 599.5 567.084 604.3 566.484 609.9C566.084 615.7 564.784 624.2 562.584 635.4C559.384 651 554.984 663.9 549.384 674.1C543.984 684.3 537.084 690 528.684 691.2C525.684 691.6 523.584 690.2 522.384 687C521.184 684 520.584 680.3 520.584 675.9C520.584 671.9 520.984 667.7 521.784 663.3C522.584 658.9 523.484 654.9 524.484 651.3C526.884 643.1 528.884 636.9 530.484 632.7C531.884 628.7 533.184 625.4 534.384 622.8C535.384 620.4 536.484 617.6 537.684 614.4C538.884 611.4 540.384 607 542.184 601.2C542.784 599.2 543.484 596.9 544.284 594.3C545.284 591.5 546.384 588.5 547.584 585.3C547.384 583.7 546.984 582.6 546.384 582C545.784 581.4 545.484 580.5 545.484 579.3C545.484 575.7 547.284 572.9 550.884 570.9C554.684 568.9 557.684 568.2 559.884 568.8C560.284 564.8 560.584 559.9 560.784 554.1C560.984 548.3 561.384 542.5 561.984 536.7C562.784 530.7 563.884 525.4 565.284 520.8C566.684 516.2 568.584 513 570.984 511.2C572.584 510.8 573.884 510.6 574.884 510.6C577.884 510.6 579.784 511.5 580.584 513.3C580.784 513.7 580.884 514.5 580.884 515.7V518.4C580.884 519.8 581.184 520.7 581.784 521.1C584.384 522.3 587.684 522.9 591.684 522.9C595.684 522.9 598.984 523.7 601.584 525.3C604.384 526.9 606.884 529.5 609.084 533.1C611.284 536.5 612.384 541.2 612.384 547.2C612.384 549.2 611.884 552.7 610.884 557.7C610.084 562.7 608.184 568 605.184 573.6C602.384 579.2 597.984 583.8 591.984 587.4C595.784 589 599.484 589.8 603.084 589.8C608.084 589.8 613.184 588.3 618.384 585.3C623.584 582.1 628.984 576.8 634.584 569.4C635.584 568.2 636.384 567.6 636.984 567.6C638.184 567.6 638.784 568.4 638.784 570C638.784 571.8 637.784 574.1 635.784 576.9ZM603.084 543.3C603.084 539.7 601.284 536.4 597.684 533.4C594.284 530.2 590.784 528.6 587.184 528.6C582.784 528.6 579.384 530.7 576.984 534.9C574.584 538.9 572.784 544.3 571.584 551.1C570.384 557.7 569.184 564.9 567.984 572.7C568.184 572.9 568.284 573 568.284 573C568.484 573 568.584 573 568.584 573C568.984 573 569.284 572.9 569.484 572.7C569.884 572.5 570.284 572.4 570.684 572.4C571.084 572.4 571.684 572.5 572.484 572.7C573.284 572.9 574.084 573.5 574.884 574.5C577.084 576.3 579.084 577.8 580.884 579C582.884 580.2 584.284 580.8 585.084 580.8C587.084 580.8 589.084 579.7 591.084 577.5C593.284 575.3 595.284 572.6 597.084 569.4C598.884 566.2 600.184 563.3 600.984 560.7C602.184 557.1 602.784 553.6 602.784 550.2C602.984 546.6 603.084 544.3 603.084 543.3ZM582.984 585.9C582.984 585.9 581.784 585.5 579.384 584.7C576.984 583.9 574.684 582.8 572.484 581.4C572.084 581.2 571.484 581.1 570.684 581.1C569.684 581.1 569.184 581.9 569.184 583.5C569.184 584.3 569.384 585.2 569.784 586.2C570.184 587 570.784 587.6 571.584 588C573.984 588.6 576.484 588.4 579.084 587.4C581.684 586.4 582.984 585.9 582.984 585.9ZM558.084 591.6C557.684 591.2 556.984 590.9 555.984 590.7C555.184 590.3 554.384 589.9 553.584 589.5C550.784 599.3 547.984 608.1 545.184 615.9C542.584 623.7 540.084 631.5 537.684 639.3C535.484 647.1 533.484 656.1 531.684 666.3C531.484 667.7 531.384 668.9 531.384 669.9C531.184 671.1 531.084 672.1 531.084 672.9C531.084 675.5 531.584 676.8 532.584 676.8C533.584 676.8 534.784 675.9 536.184 674.1C537.584 672.5 538.784 670.8 539.784 669C544.984 661 548.284 654.4 549.684 649.2C551.284 644 552.184 639.1 552.384 634.5C552.584 630.1 553.284 625 554.484 619.2C555.284 615.2 555.984 611.1 556.584 606.9C557.384 602.9 557.884 599.4 558.084 596.4C558.484 593.4 558.484 591.8 558.084 591.6ZM692.181 478.8C690.781 478.8 689.381 478.6 687.981 478.2C686.781 477.6 685.581 476.9 684.381 476.1C681.781 474.9 680.481 472.3 680.481 468.3C680.481 466.5 680.881 464.5 681.681 462.3C682.681 460.1 684.181 458 686.181 456C687.581 454.6 689.281 453.9 691.281 453.9C693.081 453.9 694.781 454.6 696.381 456C697.181 456.8 697.681 458.1 697.881 459.9C698.281 461.5 698.481 463.3 698.481 465.3C698.481 467.7 698.281 470.1 697.881 472.5C697.481 474.7 696.781 476.3 695.781 477.3C694.381 478.3 693.181 478.8 692.181 478.8ZM661.581 596.7C654.181 596.7 649.081 595 646.281 591.6C643.481 588.2 642.081 584.1 642.081 579.3C642.081 577.1 642.281 574.9 642.681 572.7C643.081 570.5 643.581 568.3 644.181 566.1C642.181 569.7 639.081 573.9 634.881 578.7C630.681 583.3 626.781 587 623.181 589.8C622.381 590.4 621.581 590.7 620.781 590.7C619.581 590.7 618.981 590 618.981 588.6C618.981 587 619.581 585.6 620.781 584.4C629.181 575.6 635.581 568.5 639.981 563.1C644.381 557.5 647.781 552.8 650.181 549C652.581 545.2 654.881 541.7 657.081 538.5C658.881 532.7 660.481 527.1 661.881 521.7C663.481 516.1 665.881 510.4 669.081 504.6C670.081 502.8 672.081 501.9 675.081 501.9C677.081 501.9 678.881 502.4 680.481 503.4C682.081 504.4 682.881 506.1 682.881 508.5C682.881 509.7 682.581 511.1 681.981 512.7C679.781 518.9 677.381 524.2 674.781 528.6C672.381 532.8 669.181 538.2 665.181 544.8C660.981 551.6 657.581 558.2 654.981 564.6C652.581 571 651.381 576.4 651.381 580.8C651.381 583.6 651.981 585.9 653.181 587.7C654.581 589.5 656.581 590.4 659.181 590.4C664.781 590.6 669.081 589.7 672.081 587.7C675.081 585.5 677.581 583.4 679.581 581.4C682.181 578.6 684.381 576 686.181 573.6C688.181 571.2 689.981 569.1 691.581 567.3C692.781 566.1 693.381 566.3 693.381 567.9C693.381 568.9 693.081 570.2 692.481 571.8C692.081 573.4 691.581 574.6 690.981 575.4C688.981 578.2 686.581 581.3 683.781 584.7C681.181 588.1 678.081 591 674.481 593.4C670.881 595.6 666.581 596.7 661.581 596.7ZM814.152 434.7C811.952 447.5 808.552 460 803.952 472.2C799.352 484.2 794.252 495.5 788.652 506.1C783.052 516.5 777.652 526 772.452 534.6C767.252 543 762.952 550 759.552 555.6C756.352 561 754.752 564.6 754.752 566.4C754.752 566.4 754.952 567.6 755.352 570C755.752 572.4 756.452 575.2 757.452 578.4C758.452 581.4 759.752 584.1 761.352 586.5C762.952 588.9 764.852 590.1 767.052 590.1C769.852 590.1 772.952 589.2 776.352 587.4C779.952 585.4 782.752 583.6 784.752 582C788.752 578.6 791.252 576.9 792.252 576.9C792.852 576.9 793.152 577.2 793.152 577.8C793.152 578.6 792.652 579.9 791.652 581.7C790.652 583.5 789.652 584.8 788.652 585.6C785.452 588.4 782.152 591.1 778.752 593.7C775.552 596.1 772.252 597.3 768.852 597.3C763.452 597.3 759.252 595.7 756.252 592.5C753.252 589.1 751.052 585.4 749.652 581.4C748.252 577.4 747.052 574.3 746.052 572.1C741.052 574.3 736.652 576.7 732.852 579.3C729.252 581.9 725.752 584.1 722.352 585.9C718.952 587.7 715.152 588.6 710.952 588.6C703.952 588.6 697.852 586.3 692.652 581.7C687.452 576.9 684.852 571.7 684.852 566.1C684.852 555.3 687.152 546.6 691.752 540C696.552 533.4 702.652 528.6 710.052 525.6C717.452 522.4 724.952 520.8 732.552 520.8C737.752 520.8 742.552 521.4 746.952 522.6C749.952 511.8 752.552 503.2 754.752 496.8C756.952 490.2 759.152 484.3 761.352 479.1C763.752 473.7 766.452 467.6 769.452 460.8C772.252 454 775.652 447.2 779.652 440.4C783.852 433.4 788.452 426.8 793.452 420.6C795.252 418.2 797.052 416.2 798.852 414.6C800.852 413 803.152 412.2 805.752 412.2C809.552 412.2 812.052 413.5 813.252 416.1C814.452 418.5 815.052 421.4 815.052 424.8C815.052 428.4 814.752 431.7 814.152 434.7ZM806.952 429.9C804.352 431.9 800.452 436.8 795.252 444.6C790.252 452.2 785.352 460.9 780.552 470.7C776.952 478.3 773.352 486 769.752 493.8C766.152 501.4 763.052 508.1 760.452 513.9C757.852 519.7 756.052 523.6 755.052 525.6C756.452 527 757.152 529.8 757.152 534C757.152 538.2 756.552 542.7 755.352 547.5C756.352 546.1 758.952 542.1 763.152 535.5C767.352 528.9 772.152 520.8 777.552 511.2C783.152 501.6 788.152 491.7 792.552 481.5C794.552 476.7 796.652 471 798.852 464.4C801.052 457.8 802.952 451.4 804.552 445.2C806.152 438.8 806.952 433.7 806.952 429.9ZM742.152 543.6C742.352 542 742.552 540.5 742.752 539.1C742.952 537.7 743.052 536.5 743.052 535.5C743.052 533.1 742.352 531.8 740.952 531.6C739.152 531 737.452 530.7 735.852 530.7C730.252 530.7 724.952 533 719.952 537.6C715.152 542.2 710.752 547.4 706.752 553.2C705.952 554.4 704.952 556.6 703.752 559.8C702.752 563 702.252 566.3 702.252 569.7C702.252 572.3 702.752 574.7 703.752 576.9C704.752 578.9 706.452 580.4 708.852 581.4C709.252 581.6 710.052 581.7 711.252 581.7C714.052 581.7 717.452 580.6 721.452 578.4C725.452 576.2 729.252 573.3 732.852 569.7C736.652 565.9 739.352 561.8 740.952 557.4C741.752 555.4 742.052 553.2 741.852 550.8C741.852 548.4 741.952 546 742.152 543.6ZM973.328 582.6C970.928 585 967.228 588.4 962.228 592.8C957.428 597 952.328 601 946.928 604.8C941.728 608.6 937.328 611 933.728 612C929.528 613.2 925.728 614.5 922.328 615.9C918.928 617.3 915.228 618.5 911.228 619.5C907.228 620.7 902.228 621.3 896.228 621.3C887.828 621.3 878.828 619.8 869.228 616.8C859.628 614 850.628 610.5 842.228 606.3C833.828 602.3 827.028 598.4 821.828 594.6C811.428 586.8 803.428 576.3 797.828 563.1C792.428 549.7 789.728 534 789.728 516C789.728 511 790.228 505.6 791.228 499.8C792.228 493.8 793.428 488.2 794.828 483C796.228 477.6 797.628 473.3 799.028 470.1C803.228 460.5 808.328 451.1 814.328 441.9C820.528 432.7 828.528 425 838.328 418.8C843.528 415.4 850.128 411.9 858.128 408.3C866.128 404.5 876.628 402.6 889.628 402.6C891.428 402.6 893.328 402.7 895.328 402.9C897.328 402.9 899.328 403 901.328 403.2C912.328 404.4 922.028 407.8 930.428 413.4C939.028 419 945.728 424.9 950.528 431.1C952.728 433.9 954.628 437.6 956.228 442.2C957.828 446.8 958.628 451.7 958.628 456.9C958.628 459.3 958.428 461.7 958.028 464.1C957.828 466.5 957.228 468.9 956.228 471.3C953.828 478.7 950.528 485.6 946.328 492C942.328 498.4 937.328 503.6 931.328 507.6C925.328 511.4 918.128 513.3 909.728 513.3C902.328 513.3 896.628 512.8 892.628 511.8C888.628 510.8 885.328 509.2 882.728 507C880.128 504.6 877.128 501.4 873.728 497.4C870.928 494 869.028 490.2 868.028 486C867.028 481.6 866.528 477.5 866.528 473.7C866.528 469.9 866.528 467.2 866.528 465.6C866.528 460.8 868.528 456 872.528 451.2C876.728 446.2 881.628 442 887.228 438.6C893.028 435.2 898.128 433.5 902.528 433.5C906.528 433.5 909.728 435.1 912.128 438.3C914.528 441.3 916.228 444.7 917.228 448.5C918.428 452.3 919.028 455.3 919.028 457.5C919.028 460.5 918.628 463.9 917.828 467.7C917.028 471.5 914.328 475.1 909.728 478.5C908.928 479.3 908.128 479.7 907.328 479.7C905.928 479.7 905.228 478.7 905.228 476.7C905.228 475.7 905.528 474.5 906.128 473.1C906.728 471.7 907.728 470.5 909.128 469.5C910.728 468.3 911.728 466.9 912.128 465.3C912.528 463.7 912.728 462.2 912.728 460.8C912.728 459.6 912.628 458.5 912.428 457.5C912.428 456.3 912.428 455.3 912.428 454.5C912.428 452.9 911.528 450.7 909.728 447.9C907.928 444.9 905.528 443.4 902.528 443.4C899.528 443.4 895.928 444.6 891.728 447C887.728 449.2 884.228 452 881.228 455.4C878.228 458.8 876.728 462.2 876.728 465.6C876.728 467.6 877.928 470.7 880.328 474.9C882.928 479.1 885.828 483.2 889.028 487.2C891.628 490.2 893.428 492.6 894.428 494.4C895.628 496.2 897.228 497.5 899.228 498.3C901.428 498.9 905.428 499.2 911.228 499.2C921.228 499.2 928.828 496.2 934.028 490.2C939.228 484 943.428 476.6 946.628 468C947.828 464 948.428 460.2 948.428 456.6C948.428 452.6 947.828 448.9 946.628 445.5C945.628 442.1 944.328 439.4 942.728 437.4C938.728 432 934.028 428 928.628 425.4C923.228 422.6 915.828 420.8 906.428 420C904.628 419.8 902.828 419.7 901.028 419.7C899.428 419.5 897.828 419.4 896.228 419.4C884.228 419.4 874.628 421.2 867.428 424.8C860.428 428.4 854.328 431.7 849.128 434.7C840.128 440.1 832.928 447 827.528 455.4C822.128 463.8 817.428 472.4 813.428 481.2C812.228 484 810.928 487.9 809.528 492.9C808.328 497.9 807.328 503.1 806.528 508.5C805.728 513.9 805.328 518.8 805.328 523.2C805.328 539.2 806.728 552 809.528 561.6C812.328 571.2 818.428 579.5 827.828 586.5C832.828 590.1 839.228 593.8 847.028 597.6C854.828 601.4 863.028 604.6 871.628 607.2C880.428 610 888.628 611.4 896.228 611.4C904.428 611.4 910.828 610.3 915.428 608.1C920.028 606.1 925.128 604.2 930.728 602.4C934.128 601.4 938.428 599.4 943.628 596.4C948.828 593.4 953.828 590.2 958.628 586.8C963.628 583.4 967.228 580.7 969.428 578.7C970.828 577.3 972.228 576.6 973.628 576.6C974.828 576.6 975.428 577.2 975.428 578.4C975.428 579.8 974.728 581.2 973.328 582.6ZM1045.28 543.6C1045.28 547.8 1044.38 553.3 1042.58 560.1C1040.78 566.9 1038.38 573.3 1035.38 579.3C1032.58 585.5 1029.38 590.1 1025.78 593.1C1022.38 595.9 1019.08 597.9 1015.88 599.1C1012.68 600.1 1010.08 601.1 1008.08 602.1C1007.28 602.3 1006.38 602.5 1005.38 602.7C1004.58 603.1 1003.68 603.3 1002.68 603.3C998.679 603.3 995.579 602.2 993.379 600C992.579 599.2 991.279 598.4 989.479 597.6C987.879 596.8 986.379 595.4 984.979 593.4C983.579 591.4 982.879 588.1 982.879 583.5C982.879 578.7 983.479 574.1 984.679 569.7C981.079 565.5 979.279 560.9 979.279 555.9C979.279 552.9 979.979 550 981.379 547.2C985.179 540 989.979 534.4 995.779 530.4C1001.58 526.4 1007.08 523.6 1012.28 522C1017.68 520.4 1021.38 519.6 1023.38 519.6C1030.78 519.6 1036.28 522 1039.88 526.8C1043.48 531.6 1045.28 537.2 1045.28 543.6ZM1032.98 545.1C1032.98 540.5 1031.38 536.7 1028.18 533.7C1025.18 530.7 1021.38 529.2 1016.78 529.2C1012.98 529.2 1009.08 530.4 1005.08 532.8C1001.28 535 997.979 537.8 995.179 541.2C992.379 544.6 990.579 547.9 989.779 551.1C989.579 552.3 989.379 553.4 989.179 554.4C989.179 555.4 989.179 556.4 989.179 557.4C991.379 552.6 993.679 548.6 996.079 545.4C998.679 542.2 1000.58 540.2 1001.78 539.4C1002.78 538.6 1004.08 538.2 1005.68 538.2C1007.88 538.2 1008.98 538.8 1008.98 540C1008.98 540.8 1007.88 542.3 1005.68 544.5C1003.68 546.5 1001.38 549.2 998.779 552.6C996.179 555.8 993.979 559.8 992.179 564.6C993.779 566.6 995.879 568.1 998.479 569.1C1001.28 569.9 1003.98 570.3 1006.58 570.3C1009.38 570.3 1011.98 569.8 1014.38 568.8C1016.98 567.6 1018.68 566 1019.48 564C1019.68 563.4 1019.78 562.9 1019.78 562.5C1019.98 561.9 1020.08 561.4 1020.08 561C1020.08 559 1019.18 557.8 1017.38 557.4C1015.78 556.8 1014.18 556.6 1012.58 556.8H1011.98C1009.78 556.8 1008.68 556.3 1008.68 555.3C1008.68 554.7 1008.88 554.1 1009.28 553.5C1009.88 552.9 1010.38 552.4 1010.78 552C1011.98 550.8 1013.28 550.2 1014.68 550.2C1016.68 550.2 1018.88 551.5 1021.28 554.1C1023.48 557.1 1024.58 560 1024.58 562.8C1024.58 566.4 1022.78 569.2 1019.18 571.2C1015.78 573.2 1011.98 574.6 1007.78 575.4C1003.58 576.2 1000.38 576.6 998.179 576.6C994.979 576.6 992.379 575.9 990.379 574.5C990.179 574.9 990.079 575.8 990.079 577.2C990.079 582.8 991.579 586.6 994.579 588.6C997.579 590.4 1000.08 591.8 1002.08 592.8C1003.28 593.2 1004.28 593.4 1005.08 593.4C1007.88 593.4 1010.78 592.2 1013.78 589.8C1016.98 587.4 1019.78 584.1 1022.18 579.9C1023.98 576.7 1025.68 572.9 1027.28 568.5C1028.88 564.1 1030.18 559.8 1031.18 555.6C1032.38 551.2 1032.98 547.7 1032.98 545.1ZM1109.84 545.4C1109.84 550 1109.44 553.4 1108.64 555.6C1108.04 557.8 1107.14 559.6 1105.94 561C1104.94 562.4 1103.84 564 1102.64 565.8C1101.44 567.6 1100.44 570.3 1099.64 573.9C1099.04 577.3 1098.74 582.3 1098.74 588.9C1098.74 591.5 1099.74 593.6 1101.74 595.2C1103.74 596.8 1106.04 597.6 1108.64 597.6C1109.84 597.6 1110.44 598 1110.44 598.8C1110.44 599.8 1109.64 601 1108.04 602.4C1106.64 604 1105.34 604.8 1104.14 604.8C1099.74 604.8 1096.54 603.1 1094.54 599.7C1092.54 596.1 1091.54 592.3 1091.54 588.3C1091.54 581.7 1091.74 576.5 1092.14 572.7C1092.54 568.7 1092.94 565 1093.34 561.6C1093.74 558 1093.84 553.6 1093.64 548.4C1093.44 544.8 1092.94 542 1092.14 540C1091.34 537.8 1089.24 536.7 1085.84 536.7C1084.04 536.7 1082.74 537 1081.94 537.6C1081.34 538.2 1080.54 539.2 1079.54 540.6C1077.34 543.8 1075.44 548.3 1073.84 554.1C1072.44 559.7 1071.24 565.7 1070.24 572.1C1069.44 578.3 1068.64 583.9 1067.84 588.9C1067.24 593.7 1066.64 596.9 1066.04 598.5C1065.44 599.9 1064.64 600.9 1063.64 601.5C1062.84 602.1 1061.94 602.4 1060.94 602.4C1060.14 602.4 1059.34 602.2 1058.54 601.8C1057.94 601.6 1057.44 601.4 1057.04 601.2C1056.04 600.6 1055.54 599.6 1055.54 598.2C1055.54 596.8 1055.84 595.2 1056.44 593.4C1057.24 591.4 1057.84 589.6 1058.24 588C1058.64 586.4 1059.24 583.6 1060.04 579.6C1061.04 575.4 1062.04 571.1 1063.04 566.7C1064.04 562.1 1064.84 558.2 1065.44 555C1066.24 551.6 1066.64 549.9 1066.64 549.9C1065.64 549.9 1064.64 550 1063.64 550.2C1062.64 550.2 1061.64 550.2 1060.64 550.2C1057.64 550.2 1056.14 549 1056.14 546.6C1056.14 545 1056.74 542.6 1057.94 539.4C1059.14 536.2 1061.34 532 1064.54 526.8C1065.54 525.2 1067.54 523.2 1070.54 520.8C1073.54 518.4 1076.04 517.4 1078.04 517.8C1078.84 517.4 1079.54 517.2 1080.14 517.2C1080.74 517.2 1081.24 517.2 1081.64 517.2C1083.84 517.2 1085.04 518 1085.24 519.6C1085.64 521 1085.74 522.5 1085.54 524.1C1085.34 525.5 1085.44 526.1 1085.84 525.9C1088.64 524.7 1091.44 524.1 1094.24 524.1C1098.44 524.1 1102.04 525.8 1105.04 529.2C1108.24 532.4 1109.84 537.8 1109.84 545.4ZM1188.94 545.4C1188.94 550 1188.54 553.4 1187.74 555.6C1187.14 557.8 1186.24 559.6 1185.04 561C1184.04 562.4 1182.94 564 1181.74 565.8C1180.54 567.6 1179.54 570.3 1178.74 573.9C1178.14 577.3 1177.84 582.3 1177.84 588.9C1177.84 591.5 1178.84 593.6 1180.84 595.2C1182.84 596.8 1185.14 597.6 1187.74 597.6C1188.94 597.6 1189.54 598 1189.54 598.8C1189.54 599.8 1188.74 601 1187.14 602.4C1185.74 604 1184.44 604.8 1183.24 604.8C1178.84 604.8 1175.64 603.1 1173.64 599.7C1171.64 596.1 1170.64 592.3 1170.64 588.3C1170.64 581.7 1170.84 576.5 1171.24 572.7C1171.64 568.7 1172.04 565 1172.44 561.6C1172.84 558 1172.94 553.6 1172.74 548.4C1172.54 544.8 1172.04 542 1171.24 540C1170.44 537.8 1168.34 536.7 1164.94 536.7C1163.14 536.7 1161.84 537 1161.04 537.6C1160.44 538.2 1159.64 539.2 1158.64 540.6C1156.44 543.8 1154.54 548.3 1152.94 554.1C1151.54 559.7 1150.34 565.7 1149.34 572.1C1148.54 578.3 1147.74 583.9 1146.94 588.9C1146.34 593.7 1145.74 596.9 1145.14 598.5C1144.54 599.9 1143.74 600.9 1142.74 601.5C1141.94 602.1 1141.04 602.4 1140.04 602.4C1139.24 602.4 1138.44 602.2 1137.64 601.8C1137.04 601.6 1136.54 601.4 1136.14 601.2C1135.14 600.6 1134.64 599.6 1134.64 598.2C1134.64 596.8 1134.94 595.2 1135.54 593.4C1136.34 591.4 1136.94 589.6 1137.34 588C1137.74 586.4 1138.34 583.6 1139.14 579.6C1140.14 575.4 1141.14 571.1 1142.14 566.7C1143.14 562.1 1143.94 558.2 1144.54 555C1145.34 551.6 1145.74 549.9 1145.74 549.9C1144.74 549.9 1143.74 550 1142.74 550.2C1141.74 550.2 1140.74 550.2 1139.74 550.2C1136.74 550.2 1135.24 549 1135.24 546.6C1135.24 545 1135.84 542.6 1137.04 539.4C1138.24 536.2 1140.44 532 1143.64 526.8C1144.64 525.2 1146.64 523.2 1149.64 520.8C1152.64 518.4 1155.14 517.4 1157.14 517.8C1157.94 517.4 1158.64 517.2 1159.24 517.2C1159.84 517.2 1160.34 517.2 1160.74 517.2C1162.94 517.2 1164.14 518 1164.34 519.6C1164.74 521 1164.84 522.5 1164.64 524.1C1164.44 525.5 1164.54 526.1 1164.94 525.9C1167.74 524.7 1170.54 524.1 1173.34 524.1C1177.54 524.1 1181.14 525.8 1184.14 529.2C1187.34 532.4 1188.94 537.8 1188.94 545.4ZM1279.74 563.4C1277.14 567.8 1273.84 572.6 1269.84 577.8C1265.84 582.8 1261.64 587.1 1257.24 590.7C1253.04 594.3 1249.04 596.1 1245.24 596.1C1239.04 596.1 1234.14 595.8 1230.54 595.2C1227.14 594.4 1224.34 593.3 1222.14 591.9C1218.34 589.3 1215.24 585.9 1212.84 581.7C1210.44 577.5 1209.04 573.2 1208.64 568.8C1208.44 567.6 1208.34 566.4 1208.34 565.2C1208.34 564 1208.34 562.9 1208.34 561.9C1208.34 550.1 1210.64 539.7 1215.24 530.7C1219.84 521.7 1226.34 516.3 1234.74 514.5C1237.34 514.1 1239.34 515.2 1240.74 517.8C1242.14 520.2 1242.84 523.5 1242.84 527.7C1242.84 534.1 1241.14 541 1237.74 548.4C1236.34 551.4 1234.84 554.3 1233.24 557.1C1231.84 559.7 1230.64 561.8 1229.64 563.4C1227.04 567.2 1225.04 569.8 1223.64 571.2C1222.44 572.4 1221.84 573.6 1221.84 574.8C1221.84 578 1223.84 581.1 1227.84 584.1C1231.84 587.1 1238.04 588.6 1246.44 588.6C1249.64 588.6 1252.94 587.2 1256.34 584.4C1259.74 581.6 1263.04 578.1 1266.24 573.9C1269.64 569.7 1272.64 565.5 1275.24 561.3C1276.44 559.3 1277.54 558.3 1278.54 558.3C1279.74 558.3 1280.34 559.2 1280.34 561C1280.34 561.8 1280.14 562.6 1279.74 563.4ZM1234.74 525.6C1233.94 524.4 1232.24 524.7 1229.64 526.5C1227.24 528.1 1225.04 531.9 1223.04 537.9C1221.64 542.3 1220.94 547.4 1220.94 553.2C1220.94 554.8 1220.94 556.4 1220.94 558C1221.14 559.6 1221.34 561.2 1221.54 562.8C1224.94 557 1227.34 552.7 1228.74 549.9C1230.34 546.9 1231.54 543.8 1232.34 540.6C1232.74 539 1233.34 537 1234.14 534.6C1235.14 532.2 1235.64 530.1 1235.64 528.3C1235.64 527.1 1235.34 526.2 1234.74 525.6ZM1323.43 580.2C1318.43 586.6 1313.73 591.1 1309.33 593.7C1304.93 596.3 1300.73 597.9 1296.73 598.5C1292.73 598.9 1288.53 599.1 1284.13 599.1C1277.33 599.1 1272.03 596.9 1268.23 592.5C1264.63 587.9 1262.63 582.6 1262.23 576.6C1262.03 572.6 1262.23 567.8 1262.83 562.2C1263.63 556.6 1265.63 550.5 1268.83 543.9C1271.83 537.7 1275.03 533.2 1278.43 530.4C1281.83 527.4 1285.13 525.3 1288.33 524.1C1291.53 522.9 1294.13 521.9 1296.13 521.1C1297.73 520.5 1299.43 520.2 1301.23 520.2C1305.23 520.2 1308.43 521.2 1310.83 523.2C1311.83 524 1312.43 525.1 1312.63 526.5C1313.03 527.7 1313.23 529 1313.23 530.4C1313.23 531.2 1313.13 532.1 1312.93 533.1C1312.93 533.9 1312.83 534.7 1312.63 535.5C1312.23 538.1 1311.03 541.5 1309.03 545.7C1307.23 549.7 1305.53 553.6 1303.93 557.4C1302.73 558.6 1301.43 559.2 1300.03 559.2C1298.43 559.2 1298.03 558.3 1298.83 556.5C1299.83 552.5 1301.13 549.2 1302.73 546.6C1304.53 543.8 1305.43 541.4 1305.43 539.4C1305.63 538.8 1305.73 538.2 1305.73 537.6C1305.73 537 1305.73 536.5 1305.73 536.1C1305.73 533.3 1304.53 531.4 1302.13 530.4C1300.93 530 1300.03 529.8 1299.43 529.8C1296.83 529.8 1293.83 531 1290.43 533.4C1287.03 535.8 1284.23 539.1 1282.03 543.3C1279.43 547.9 1277.53 553.1 1276.33 558.9C1275.33 564.7 1274.83 569.6 1274.83 573.6C1274.83 578.4 1276.53 582.4 1279.93 585.6C1283.53 588.6 1287.83 589.9 1292.83 589.5C1298.43 588.9 1303.83 587.4 1309.03 585C1314.43 582.6 1319.03 578.9 1322.83 573.9C1323.43 573.5 1324.03 573.3 1324.63 573.3C1325.23 573.3 1325.53 573.7 1325.53 574.5C1325.53 575.3 1325.23 576.4 1324.63 577.8C1324.23 579 1323.83 579.8 1323.43 580.2ZM1400.7 481.5C1400.7 481.5 1400.7 482.2 1400.7 483.6C1400.9 485 1400.5 486.7 1399.5 488.7C1398.5 490.7 1396.3 492.7 1392.9 494.7C1391.7 495.5 1389.5 496.1 1386.3 496.5C1383.1 496.9 1379.5 497.2 1375.5 497.4C1373.3 503.2 1370.9 509.1 1368.3 515.1C1365.7 520.9 1363 526.4 1360.2 531.6C1356 539.6 1352.4 545.5 1349.4 549.3C1346.6 553.1 1344.4 556 1342.8 558C1341.2 559.8 1340.1 562 1339.5 564.6C1339.3 565.8 1339.1 566.9 1338.9 567.9C1338.9 568.9 1338.9 569.9 1338.9 570.9C1338.9 578.3 1341 583.7 1345.2 587.1C1349.6 590.5 1353.8 592.2 1357.8 592.2C1362.4 592.2 1367 590.6 1371.6 587.4C1376.2 584 1380 580.9 1383 578.1C1385.4 576.1 1387.2 575.1 1388.4 575.1C1389.2 575.1 1389.6 575.5 1389.6 576.3C1389.6 577.7 1388.5 579.9 1386.3 582.9C1385.1 584.5 1383.1 586.7 1380.3 589.5C1377.5 592.3 1374 594.9 1369.8 597.3C1365.6 599.5 1360.9 600.6 1355.7 600.6C1345.3 600.6 1338.3 598.2 1334.7 593.4C1331.3 588.6 1329.6 580.6 1329.6 569.4C1329.6 560.6 1330.5 549.8 1332.3 537C1334.1 524 1336.9 510.3 1340.7 495.9C1339.7 495.9 1338.7 495.9 1337.7 495.9C1336.7 495.7 1335.8 495.6 1335 495.6C1332.4 495.6 1330.4 496 1329 496.8C1327.8 497.4 1326.8 497.7 1326 497.7C1324 497.7 1323 496.2 1323 493.2C1323 489.8 1323.9 487.2 1325.7 485.4C1327.1 484 1329.5 483.3 1332.9 483.3C1335.5 483.3 1339 483.8 1343.4 484.8C1343.8 483.6 1344.2 482.5 1344.6 481.5C1345 480.5 1345.3 479.5 1345.5 478.5C1345.9 476.5 1346.3 474.9 1346.7 473.7C1347.1 472.5 1347.6 471 1348.2 469.2C1351.6 459 1355.3 449.2 1359.3 439.8C1363.3 430.4 1369.1 422 1376.7 414.6C1378.1 412.4 1380 411.3 1382.4 411.3C1384.2 411.3 1385.8 412.1 1387.2 413.7C1388.6 415.1 1389.2 416.8 1389 418.8C1389 418.8 1388.9 421.3 1388.7 426.3C1388.5 431.3 1388.1 437.4 1387.5 444.6C1386.9 451.6 1386 458.3 1384.8 464.7C1384.2 468.5 1383.3 472.6 1382.1 477C1381.1 481.2 1379.8 485.5 1378.2 489.9C1379.4 490.1 1380.5 490.3 1381.5 490.5C1382.7 490.5 1383.8 490.5 1384.8 490.5C1387.8 490.5 1390.1 490.1 1391.7 489.3C1393.5 488.3 1394.5 487.3 1394.7 486.3C1395.1 485.3 1395.3 484.8 1395.3 484.8C1395.3 480.8 1396.3 478.8 1398.3 478.8C1399.3 478.8 1400.1 479.7 1400.7 481.5ZM1379.4 431.4C1378.2 431.2 1376.3 433.5 1373.7 438.3C1371.1 443.1 1368.3 449.4 1365.3 457.2C1362.3 465 1359.4 473.3 1356.6 482.1C1356.4 482.9 1356.2 483.7 1356 484.5C1355.8 485.1 1355.6 485.8 1355.4 486.6C1356.8 487 1358.2 487.3 1359.6 487.5C1361 487.7 1362.5 488 1364.1 488.4C1364.9 488.6 1365.8 488.7 1366.8 488.7C1367.8 488.7 1368.7 488.9 1369.5 489.3C1370.3 487.1 1371 485.2 1371.6 483.6C1372.2 481.8 1372.8 480.2 1373.4 478.8C1375.6 471.4 1377.4 463.8 1378.8 456C1380.2 448.2 1380.9 442.1 1380.9 437.7C1380.9 434.1 1380.4 432 1379.4 431.4ZM1366.2 497.4H1360.8C1359.4 497.4 1358 497.4 1356.6 497.4C1355.4 497.4 1354.2 497.3 1353 497.1C1351.2 504.7 1349.4 512.9 1347.6 521.7C1346 530.3 1344.7 538 1343.7 544.8C1346.1 542 1348.6 538 1351.2 532.8C1353.8 527.6 1356.4 521.9 1359 515.7C1361.6 509.3 1364 503.2 1366.2 497.4Z" fill="white"/>
<path d="M184.066 664.461C189.046 646.421 198.726 625.468 210.204 603.402C216.729 590.578 226.194 578.855 238.835 568.323C242.926 564.914 246.058 560.433 247.69 555.299C251.346 543.791 256.555 531.854 263.234 519.509C265.192 515.89 268.375 513.109 272.19 511.742C281.294 508.481 290.174 506.299 298.793 505.371C304.097 504.8 308.729 501.391 310.818 496.369C311.752 494.124 312.514 491.873 313.101 489.616C314.265 485.135 313.742 480.357 311.738 476.198C300.087 452.018 284.32 427.79 265.14 403.522C263.598 401.571 263.71 398.774 265.354 396.912C279.761 380.596 282.444 350.454 281.056 315.51C280.944 312.691 282.52 310.091 285.032 308.928C298.78 302.566 319.61 301.849 342.172 302.515L356.389 438.56C349.253 447.218 344.789 455.631 344.773 463.981C345.111 486.554 355.067 496.205 372.056 496.408C391.26 486.632 390.079 474.64 374.794 461.115C366.472 454.743 355.822 462.894 365.273 471.273C373.931 478.68 375.969 483.963 365.557 485.249C357.028 482.802 353.556 477.166 354.438 468.786C359.545 447.034 374.882 433.667 395.686 424.779C450.32 403.806 476.969 372.845 473.072 330.981C471.964 314.383 467.283 301.367 456.772 294.194C461.458 271.908 457.487 256.175 443.922 247.706C450.875 244.881 456.25 241.185 460.263 236.737L555.071 236.703L549.226 253.257C557.524 245.848 570.913 238.851 581.704 234.749C570.91 230.659 557.516 223.671 549.213 216.268L555.069 232.814L463.302 232.846C471.69 220.369 471.457 203.133 466.126 183.082C450.801 144.841 416.516 121.367 379.552 91.1085C357.5 73.0563 341.772 54.8672 340.39 37.9113C339.698 29.4122 348.053 23.931 354.78 27.9772C359.707 30.9405 362.122 39.0157 356.481 40.8103C353.894 41.6333 350.936 38.1627 348.347 42.0643C346.065 45.5022 350.214 50.5271 354.403 54.2643C357.842 57.3325 369.434 51.6382 371.4 45.8955C377.655 27.6259 366.61 16.7666 353.071 14.7513C340.602 12.8952 333.052 24.3558 331.321 35.6813C330.031 44.124 333.379 58.811 346.667 76.5868L333.438 198.824C324.03 200.43 315.411 212.572 316.506 226.703C316.803 230.53 315.703 234.344 313.516 237.462C309.24 243.558 305.07 247.21 300.803 248.924C294.283 251.541 285.828 248.439 282.256 242.275C275.649 230.876 267.506 222.892 256.494 221.293C254.338 220.981 252.302 220.064 250.702 218.554C241.412 209.786 238.127 203.404 242.569 200.093C244.429 198.707 246.895 198.55 249.019 199.452C267.264 207.197 281.255 203.529 291.56 189.972C292.479 188.762 293.562 187.687 294.768 186.779C305.247 178.885 307.773 166.464 304.518 150.753C303.583 146.238 303.867 141.555 305.365 137.201C306.07 135.151 305.313 133.745 303.591 132.765C302.279 132.019 301.016 131.185 299.888 130.171L290.2 121.467C289.106 120.485 288.473 119.062 288.504 117.573C288.538 115.958 287.832 114.522 286.602 113.214C286.459 113.062 286.318 112.903 286.191 112.737C282.339 107.729 278.527 103.222 274.793 99.7024C272.689 97.7195 272.635 94.2813 274.716 92.273C276.497 90.5539 278.343 90.2888 280.269 91.8245C282.334 93.4699 282.585 96.5927 281.137 98.8228C279.868 100.777 281.087 103.081 285.178 105.789C286.966 106.973 289.302 106.934 291.02 105.646C294.071 103.36 295.609 100.614 294.929 97.1923C294.74 96.2379 294.262 95.3625 293.612 94.6511C291.213 92.027 289.116 90.3252 287.503 90.1091C286.391 89.9601 285.363 89.3847 284.577 88.5659C284.516 88.5017 284.455 88.4371 284.396 88.3722C282.674 86.4901 282.613 83.5643 284.201 81.5636C288.497 76.1522 292.842 77.419 297.226 84.3077C298.469 86.2597 298.206 88.8108 296.7 90.5575C294.577 93.0192 294.781 95.1032 299.534 96.4485C306.115 98.3389 310.987 96.7062 314.381 92.0234C314.532 91.8152 314.672 91.5937 314.797 91.3679C319.192 83.4007 316.242 74.4795 303.937 64.3432C303.733 64.1753 303.518 64.0138 303.298 63.8689C297.368 59.9643 290.645 58.9765 283.02 61.3077C281.404 61.802 279.754 60.6786 279.529 58.9676C277.656 44.678 271.075 37.0992 258.756 37.6979C257.692 37.7497 256.626 37.7249 255.565 37.636C250.536 37.2152 246.304 38.4027 243.274 42.0126C241.488 44.1407 238.077 43.4672 237.391 40.7511C237.213 40.0474 237.129 39.242 237.134 38.3391C237.138 37.5858 236.941 36.8387 236.536 36.2096C231.064 27.7075 223.599 27.4493 214.939 32.14C212.178 33.6354 208.86 33.6315 206.165 32.0166C182.197 17.6589 163.514 21.6156 150.487 45.1806C150.321 45.481 150.263 45.8344 150.311 46.176C151.101 51.7888 149.774 56.2654 145.295 59.0515C145.007 59.2303 144.662 59.3052 144.328 59.2677C140.888 58.8821 137.8 57.6992 135.01 55.838C134.83 55.7181 134.671 55.5628 134.546 55.3845C132.692 52.7431 131.959 50.1085 132.7 47.4829C132.789 47.1672 132.996 46.8962 133.259 46.7078C134.635 45.722 136.286 45.7253 138.19 46.64C138.575 46.8252 139.034 46.8131 139.406 46.6014C140.879 45.7642 141.294 44.5252 141.023 43.0252C140.984 42.8108 140.896 42.6031 140.781 42.4197C137.252 36.7919 133.555 35.8467 129.661 40.3891C129.579 40.4859 129.501 40.5945 129.435 40.7046C125.681 47.029 126.778 53.2426 132.89 59.3416C133.57 60.0206 133.414 61.156 132.593 61.6449C132.565 61.6613 132.538 61.6782 132.512 61.6959C131.668 62.2608 131.858 63.5788 132.765 64.0284C134.163 64.7206 135.288 65.5491 136.165 66.5028C137.09 67.5083 136.185 69.1474 134.877 68.8063C132.72 68.2435 130.725 68.165 128.899 68.5892C127.816 68.841 127.402 70.1889 128.106 71.0694C130.15 73.6292 132.723 76.1086 135.671 78.531C136.676 79.357 136.323 80.9934 135.078 81.3348C121.396 85.0853 114.143 94.3221 116.321 111.604C116.337 111.731 116.34 111.863 116.331 111.991C115.488 123.406 119.002 131.06 130.944 131.437C132.35 131.482 133.695 132.063 134.718 133.052C139.853 138.019 139.113 143.341 132.983 148.987C130.961 150.85 129.952 153.622 130.281 156.386C131.846 169.529 137.037 177.601 149.215 175.902C150.141 175.773 151.093 175.913 151.935 176.327C154.398 177.537 154.974 179.363 151.957 182.36C142.234 191.106 144.255 198.137 155.866 203.767C156.65 204.148 157.406 204.596 158.099 205.131C164.201 209.842 172.024 211.786 180.654 212.433C182.193 212.549 183.718 212.888 185.139 213.504C188.889 215.13 190.736 217.65 189.929 221.418C189.713 222.428 189.567 223.459 189.516 224.492C189.282 229.267 187.373 232.904 183.372 235.122C181.139 236.359 178.384 236 176.438 234.331C165.506 224.954 154.88 214.234 144.499 202.44C141.024 198.492 136.53 195.635 131.55 194.13C114.44 188.96 97.9673 186.04 82.0528 185.096C81.3425 185.053 80.6314 185.055 79.9206 185.086C46.9887 186.522 15.6611 177.04 -13.3405 151.73C-14.1532 151.021 -14.9296 150.26 -15.6562 149.459C-39.7129 122.932 -48.91 92.6669 -48.9674 60.1031C-48.9688 59.3089 -49.9321 58.9286 -50.4383 59.5307C-65.4431 77.3804 -58.3084 101.611 -42.7048 128.284C-41.987 129.511 -43.0219 131.032 -44.3932 130.756C-46.5771 130.317 -48.4997 130.151 -50.1969 130.219C-51.2745 130.263 -52.017 131.334 -51.6744 132.38C-45.5364 151.124 -30.986 169.776 -10.654 188.367C-9.09183 189.795 -9.0525 192.364 -10.6922 193.698C-10.711 193.713 -10.7299 193.728 -10.7491 193.744C-12.0271 194.75 -13.8435 194.627 -15.0581 193.541L-38.0785 172.961C-40.0567 171.192 -43.0676 173.132 -42.3768 175.725C-34.9937 203.448 -18.698 225.833 8.09966 241.93C16.8455 247.332 25.0605 251.118 32.4218 252.306C33.2004 252.432 33.9287 252.781 34.5469 253.281C37.9168 256.009 38.3518 258.159 35.1144 259.585C34.2748 259.955 33.3434 260.076 32.4443 259.907C25.2968 258.56 17.9906 255.971 10.5607 252.414C7.89124 251.136 5.14639 254.006 6.42875 256.721C19.4809 284.358 43.391 295.816 73.5291 297.995C74.3259 298.052 74.4684 299.185 73.7095 299.44L55.9937 305.398C54.5633 305.879 54.2214 307.787 55.3849 308.765C75.1855 325.408 98.2385 323.068 122.757 312.175C123.169 311.992 123.636 312.229 123.758 312.671C125.191 317.881 123.575 322.85 119.044 327.586C118.554 328.098 118.98 328.956 119.673 328.86C128.196 327.674 136.521 324.746 144.67 320.255C146.078 319.478 147.832 319.542 149.117 320.517C149.127 320.524 149.137 320.531 149.146 320.539C149.251 320.62 149.351 320.705 149.447 320.795C151.028 322.291 150.833 324.906 149.177 326.315C127.578 344.679 119.032 364.26 133.846 386.02C150.345 405.595 175 428.832 202.078 453.157C202.863 453.862 202.511 455.19 201.483 455.385C189.895 457.584 178.186 456.852 166.323 452.307C164.786 451.719 163.491 450.619 162.591 449.215C157.388 441.088 151.992 435.911 145.532 431.364C141.448 428.489 136.079 428.32 131.808 430.896C125.319 434.81 121.042 440.727 117.628 446.056C115.835 448.856 112.633 450.341 109.388 449.913C93.0057 447.755 77.8784 448.621 66.3782 457.732C62.4242 462.332 61.7793 465.812 64.7457 468.072C66.2486 469.217 68.1672 469.652 70.0239 469.394C84.1554 467.429 98.2437 468.398 112.28 472.87C112.776 473.028 113.254 473.241 113.713 473.49C124.76 479.5 138.274 482.61 153.497 483.71C174.45 483.349 194.805 486.993 214.58 494.525C221.553 496.622 219.726 501.501 210.47 508.73C209.184 509.734 208.069 510.952 207.16 512.321C204.134 516.88 201.126 521.579 199.482 536.604C199.356 537.755 199.358 538.922 199.485 540.073C200.336 547.759 198.758 554.527 193.721 559.988C191.265 562.651 187.913 564.229 184.359 564.653C180.294 565.138 176.848 566.224 173.996 567.884C167.548 571.635 164.922 579.732 167.514 586.843C168.883 590.599 171.042 594.125 173.821 597.468C176.185 600.313 177.111 604.118 176.385 607.778C174.571 616.926 172.135 625.445 168.704 632.958C167.176 636.306 167.04 640.154 168.408 643.575C171.617 651.597 175.2 658.868 179.249 665.207C180.502 667.169 183.443 666.716 184.066 664.461ZM336.692 256.597L337.67 267.738C331.552 266.683 325.784 264.524 325.351 261.236C324.966 258.302 330.297 256.819 336.692 256.597ZM433.685 232.857L366.092 232.881C365.876 232.881 365.672 232.926 365.478 232.994C362.85 218.747 349.529 200.743 337.424 198.793C337.372 198.784 337.32 198.782 337.268 198.774L350.027 80.8803C350.771 81.7917 351.532 82.7077 352.329 83.633C358.905 91.2694 380.86 113.747 403.429 135.397C430.613 161.474 439.571 206.79 433.685 232.857ZM388.049 266.482C374.933 264.59 361.426 268.215 346.858 268.489C345.254 268.519 343.427 268.44 341.532 268.255L340.509 256.61C343.33 256.722 346.179 257.053 348.701 257.594C360.847 258.128 364.957 251.603 365.895 239.25C365.956 238.445 365.958 237.608 365.92 236.752C365.978 236.757 366.034 236.77 366.094 236.77L432.653 236.746C431.248 241.287 429.32 245.07 426.885 247.824C424.648 250.354 422.057 249.776 418.821 250.206C413.77 250.877 410.926 255.985 412.484 259.575C414.477 264.169 414.853 268.985 408.47 269.878C403.345 270.594 388.049 266.482 388.049 266.482ZM359.799 434.619L346.014 302.7C347.221 302.828 348.417 303.053 349.59 303.379C369.172 308.826 392.054 306.08 416.918 298.411C420.317 297.363 424.015 297.967 426.866 300.131C447.855 316.057 444.393 355.377 419.854 379.598C399.357 399.83 375.079 417.732 359.799 434.619Z" fill="white"/>
</g>
<defs>
<clipPath id="clip0_273_37">
<rect width="1402" height="692" fill="white"/>
</clipPath>
</defs>
</svg>
