<svg width="832" height="411" viewBox="0 0 832 411" fill="none" xmlns="http://www.w3.org/2000/svg">
<path d="M289.625 344.769C288.258 346.225 286.149 348.289 283.3 350.959C280.564 353.509 277.658 355.936 274.58 358.243C271.617 360.549 269.109 362.006 267.057 362.613C264.664 363.341 262.498 364.13 260.561 364.98C258.623 365.829 256.514 366.558 254.235 367.165C251.955 367.893 249.106 368.257 245.686 368.257C240.899 368.257 235.77 367.347 230.299 365.526C224.828 363.826 219.699 361.702 214.912 359.153C210.124 356.725 206.249 354.358 203.286 352.052C197.359 347.318 192.799 340.945 189.608 332.933C186.531 324.8 184.992 315.272 184.992 304.347C184.992 301.312 185.277 298.035 185.847 294.514C186.417 290.873 187.1 287.474 187.898 284.318C188.696 281.04 189.494 278.431 190.292 276.488C192.685 270.662 195.592 264.957 199.011 259.373C202.545 253.789 207.104 249.116 212.689 245.353C215.652 243.289 219.414 241.165 223.973 238.98C228.532 236.673 234.516 235.52 241.925 235.52C242.951 235.52 244.033 235.581 245.173 235.702C246.313 235.702 247.453 235.763 248.593 235.884C254.862 236.613 260.39 238.676 265.177 242.075C270.078 245.474 273.896 249.055 276.632 252.818C277.886 254.517 278.968 256.763 279.88 259.555C280.792 262.347 281.248 265.321 281.248 268.477C281.248 269.933 281.134 271.39 280.906 272.847C280.792 274.303 280.45 275.76 279.88 277.217C278.512 281.708 276.632 285.896 274.238 289.78C271.959 293.665 269.109 296.821 265.69 299.248C262.27 301.555 258.167 302.708 253.38 302.708C249.163 302.708 245.914 302.405 243.635 301.798C241.355 301.191 239.474 300.22 237.993 298.884C236.511 297.428 234.801 295.485 232.863 293.058C231.268 290.994 230.185 288.688 229.615 286.139C229.045 283.468 228.76 280.98 228.76 278.673C228.76 276.367 228.76 274.728 228.76 273.757C228.76 270.844 229.9 267.931 232.18 265.017C234.573 261.983 237.366 259.433 240.557 257.37C243.863 255.306 246.769 254.274 249.277 254.274C251.556 254.274 253.38 255.246 254.748 257.188C256.115 259.009 257.084 261.072 257.654 263.379C258.338 265.685 258.68 267.506 258.68 268.841C258.68 270.662 258.452 272.725 257.996 275.032C257.54 277.338 256.001 279.523 253.38 281.587C252.924 282.072 252.468 282.315 252.012 282.315C251.214 282.315 250.815 281.708 250.815 280.494C250.815 279.887 250.986 279.159 251.328 278.309C251.67 277.459 252.24 276.731 253.038 276.124C253.95 275.396 254.52 274.546 254.748 273.575C254.976 272.604 255.09 271.694 255.09 270.844C255.09 270.116 255.033 269.448 254.919 268.841C254.919 268.113 254.919 267.506 254.919 267.02C254.919 266.049 254.406 264.714 253.38 263.014C252.354 261.194 250.986 260.283 249.277 260.283C247.567 260.283 245.515 261.011 243.122 262.468C240.842 263.803 238.847 265.503 237.138 267.566C235.428 269.63 234.573 271.694 234.573 273.757C234.573 274.971 235.257 276.853 236.625 279.402C238.107 281.951 239.759 284.439 241.583 286.867C243.065 288.688 244.09 290.144 244.66 291.237C245.344 292.329 246.256 293.118 247.396 293.604C248.65 293.968 250.929 294.15 254.235 294.15C259.934 294.15 264.265 292.329 267.228 288.688C270.192 284.925 272.585 280.433 274.409 275.214C275.093 272.786 275.435 270.48 275.435 268.295C275.435 265.867 275.093 263.621 274.409 261.558C273.839 259.494 273.098 257.855 272.187 256.642C269.907 253.364 267.228 250.936 264.151 249.358C261.073 247.659 256.856 246.566 251.499 246.081C250.473 245.959 249.448 245.899 248.422 245.899C247.51 245.777 246.598 245.717 245.686 245.717C238.847 245.717 233.376 246.809 229.273 248.994C225.284 251.179 221.807 253.182 218.844 255.003C213.715 258.28 209.612 262.468 206.534 267.566C203.457 272.665 200.778 277.884 198.498 283.225C197.815 284.925 197.074 287.292 196.276 290.326C195.592 293.361 195.022 296.517 194.566 299.795C194.11 303.072 193.882 306.046 193.882 308.717C193.882 318.428 194.68 326.196 196.276 332.023C197.872 337.85 201.348 342.887 206.705 347.136C209.555 349.321 213.202 351.566 217.647 353.873C222.092 356.179 226.765 358.121 231.667 359.699C236.682 361.399 241.355 362.248 245.686 362.248C250.359 362.248 254.007 361.581 256.628 360.246C259.25 359.032 262.156 357.879 265.348 356.786C267.285 356.179 269.736 354.965 272.699 353.144C275.663 351.324 278.512 349.381 281.248 347.318C284.097 345.254 286.149 343.616 287.403 342.402C288.201 341.552 288.999 341.127 289.796 341.127C290.48 341.127 290.822 341.491 290.822 342.22C290.822 343.069 290.423 343.919 289.625 344.769ZM343.966 343.858C341.003 347.621 338.438 350.231 336.272 351.688C334.107 353.144 332.226 353.873 330.63 353.873C328.579 353.873 326.812 353.023 325.33 351.324C323.963 349.503 322.766 347.561 321.74 345.497C320.828 343.433 320.087 341.977 319.517 341.127C317.352 343.191 314.787 345.376 311.824 347.682C308.86 349.867 306.41 350.959 304.472 350.959C300.825 350.959 297.975 349.988 295.923 348.046C293.872 345.983 292.846 343.009 292.846 339.124C292.846 335.118 293.302 330.384 294.214 324.922C295.24 319.459 296.493 314.058 297.975 308.717C299.457 303.254 300.882 298.702 302.249 295.061C302.591 293.968 303.275 293.058 304.301 292.329C305.441 291.601 306.581 291.237 307.72 291.237C309.088 291.237 310 291.601 310.456 292.329C310.912 293.058 311.14 293.907 311.14 294.879C311.14 296.092 310.912 297.306 310.456 298.52C310.114 299.613 309.943 300.159 309.943 300.159C308.575 304.286 306.98 308.595 305.156 313.087C303.446 317.578 301.85 322.676 300.369 328.381C300.255 329.11 300.084 330.142 299.856 331.477C299.742 332.812 299.685 334.208 299.685 335.665C299.685 337.728 299.913 339.67 300.369 341.491C300.939 343.191 301.964 344.04 303.446 344.04C304.7 344.04 306.353 343.251 308.404 341.673C310.57 340.095 312.736 337.91 314.901 335.118C317.067 332.327 318.776 329.11 320.03 325.468C321.17 322.191 322.196 318.61 323.108 314.725C324.02 310.841 324.817 307.199 325.501 303.8C326.299 300.28 327.04 297.549 327.724 295.607C328.066 294.757 328.579 294.332 329.263 294.332C330.174 294.332 330.972 294.696 331.656 295.425C332.454 296.153 332.739 296.821 332.511 297.428C332.055 298.642 331.428 300.644 330.63 303.436C329.833 306.228 329.035 309.324 328.237 312.722C327.439 316.121 326.698 319.459 326.014 322.737C325.33 325.893 324.76 328.563 324.304 330.748C323.849 332.933 323.621 334.147 323.621 334.39C323.621 336.211 323.792 337.85 324.134 339.306C324.475 340.763 325.045 342.341 325.843 344.04C326.413 345.011 327.097 346.104 327.895 347.318C328.807 348.41 329.719 348.957 330.63 348.957C332.796 348.957 334.848 348.168 336.785 346.589C338.837 344.89 340.376 343.251 341.401 341.673C342.199 340.338 342.94 339.67 343.624 339.67C344.308 339.67 344.65 340.338 344.65 341.673C344.65 342.644 344.422 343.373 343.966 343.858ZM395.789 341.309C392.597 345.679 389.691 348.896 387.069 350.959C384.562 352.902 381.997 354.116 379.376 354.601C376.868 355.087 374.019 355.329 370.827 355.329C367.978 355.329 365.299 355.087 362.792 354.601C360.284 354.116 358.46 353.448 357.321 352.598C356.979 355.026 356.637 357.939 356.295 361.338C356.067 364.858 355.326 370.017 354.072 376.815C352.248 386.283 349.741 394.113 346.549 400.303C343.472 406.494 339.54 409.954 334.752 410.682C333.043 410.925 331.846 410.075 331.162 408.133C330.478 406.312 330.136 404.066 330.136 401.396C330.136 398.968 330.364 396.419 330.82 393.748C331.276 391.078 331.789 388.65 332.359 386.465C333.727 381.488 334.866 377.725 335.778 375.176C336.576 372.748 337.317 370.746 338.001 369.168C338.571 367.711 339.198 366.011 339.882 364.069C340.565 362.248 341.42 359.578 342.446 356.058C342.788 354.844 343.187 353.448 343.643 351.87C344.213 350.17 344.84 348.35 345.524 346.407C345.41 345.436 345.182 344.769 344.84 344.405C344.498 344.04 344.327 343.494 344.327 342.766C344.327 340.581 345.353 338.881 347.404 337.668C349.57 336.454 351.28 336.029 352.533 336.393C352.761 333.965 352.932 330.991 353.046 327.471C353.16 323.951 353.388 320.431 353.73 316.91C354.186 313.269 354.813 310.052 355.611 307.26C356.409 304.468 357.491 302.526 358.859 301.433C359.771 301.191 360.512 301.069 361.082 301.069C362.792 301.069 363.874 301.616 364.33 302.708C364.444 302.951 364.501 303.436 364.501 304.165V305.803C364.501 306.653 364.672 307.199 365.014 307.442C366.496 308.17 368.377 308.535 370.656 308.535C372.936 308.535 374.816 309.02 376.298 309.991C377.894 310.962 379.319 312.54 380.572 314.725C381.826 316.789 382.453 319.642 382.453 323.283C382.453 324.497 382.168 326.621 381.598 329.656C381.142 332.691 380.06 335.907 378.35 339.306C376.754 342.705 374.247 345.497 370.827 347.682C372.993 348.653 375.101 349.139 377.153 349.139C380.003 349.139 382.909 348.228 385.872 346.407C388.836 344.465 391.913 341.248 395.105 336.757C395.675 336.029 396.131 335.665 396.473 335.665C397.157 335.665 397.498 336.15 397.498 337.121C397.498 338.214 396.929 339.61 395.789 341.309ZM377.153 320.916C377.153 318.731 376.127 316.728 374.076 314.907C372.138 312.965 370.143 311.994 368.092 311.994C365.584 311.994 363.646 313.269 362.279 315.818C360.911 318.246 359.885 321.523 359.201 325.65C358.517 329.656 357.833 334.026 357.15 338.76C357.264 338.881 357.321 338.942 357.321 338.942C357.434 338.942 357.491 338.942 357.491 338.942C357.719 338.942 357.89 338.881 358.004 338.76C358.232 338.639 358.46 338.578 358.688 338.578C358.916 338.578 359.258 338.639 359.714 338.76C360.17 338.881 360.626 339.246 361.082 339.853C362.336 340.945 363.475 341.855 364.501 342.584C365.641 343.312 366.439 343.676 366.895 343.676C368.035 343.676 369.174 343.009 370.314 341.673C371.568 340.338 372.708 338.699 373.734 336.757C374.759 334.815 375.5 333.055 375.956 331.477C376.64 329.292 376.982 327.168 376.982 325.104C377.096 322.919 377.153 321.523 377.153 320.916ZM365.698 346.772C365.698 346.772 365.014 346.529 363.646 346.043C362.279 345.558 360.968 344.89 359.714 344.04C359.486 343.919 359.144 343.858 358.688 343.858C358.118 343.858 357.833 344.344 357.833 345.315C357.833 345.8 357.947 346.347 358.175 346.954C358.403 347.439 358.745 347.803 359.201 348.046C360.569 348.41 361.994 348.289 363.475 347.682C364.957 347.075 365.698 346.772 365.698 346.772ZM351.508 350.231C351.28 349.988 350.881 349.806 350.311 349.685C349.855 349.442 349.399 349.199 348.943 348.957C347.347 354.905 345.752 360.246 344.156 364.98C342.674 369.714 341.249 374.448 339.882 379.182C338.628 383.916 337.488 389.379 336.462 395.569C336.348 396.419 336.291 397.147 336.291 397.754C336.177 398.483 336.12 399.09 336.12 399.575C336.12 401.153 336.405 401.942 336.975 401.942C337.545 401.942 338.229 401.396 339.027 400.303C339.825 399.332 340.508 398.3 341.078 397.208C344.042 392.353 345.923 388.347 346.72 385.191C347.632 382.035 348.145 379.061 348.259 376.269C348.373 373.598 348.772 370.503 349.456 366.983C349.912 364.555 350.311 362.066 350.653 359.517C351.109 357.09 351.394 354.965 351.508 353.144C351.735 351.324 351.735 350.353 351.508 350.231ZM427.929 281.769C427.132 281.769 426.334 281.647 425.536 281.405C424.852 281.04 424.168 280.616 423.484 280.13C422.002 279.402 421.262 277.824 421.262 275.396C421.262 274.303 421.49 273.089 421.945 271.754C422.515 270.419 423.37 269.144 424.51 267.931C425.308 267.081 426.277 266.656 427.417 266.656C428.442 266.656 429.411 267.081 430.323 267.931C430.779 268.416 431.064 269.205 431.178 270.298C431.406 271.269 431.52 272.361 431.52 273.575C431.52 275.032 431.406 276.488 431.178 277.945C430.95 279.28 430.551 280.251 429.981 280.858C429.183 281.465 428.499 281.769 427.929 281.769ZM410.49 353.327C406.273 353.327 403.367 352.295 401.771 350.231C400.175 348.168 399.377 345.679 399.377 342.766C399.377 341.431 399.491 340.095 399.719 338.76C399.947 337.425 400.232 336.089 400.574 334.754C399.434 336.939 397.668 339.488 395.274 342.402C392.881 345.194 390.658 347.439 388.606 349.139C388.15 349.503 387.694 349.685 387.239 349.685C386.555 349.685 386.213 349.26 386.213 348.41C386.213 347.439 386.555 346.59 387.239 345.861C392.026 340.52 395.673 336.211 398.181 332.933C400.688 329.535 402.626 326.682 403.994 324.376C405.361 322.069 406.672 319.945 407.926 318.003C408.952 314.483 409.864 311.084 410.661 307.806C411.573 304.407 412.941 300.948 414.765 297.428C415.335 296.335 416.474 295.789 418.184 295.789C419.324 295.789 420.35 296.092 421.262 296.699C422.173 297.306 422.629 298.338 422.629 299.795C422.629 300.523 422.458 301.373 422.116 302.344C420.863 306.107 419.495 309.324 418.013 311.994C416.645 314.543 414.822 317.821 412.542 321.826C410.149 325.954 408.211 329.959 406.729 333.844C405.361 337.728 404.677 341.006 404.677 343.676C404.677 345.376 405.019 346.772 405.703 347.864C406.501 348.957 407.641 349.503 409.123 349.503C412.314 349.624 414.765 349.078 416.474 347.864C418.184 346.529 419.609 345.254 420.749 344.04C422.23 342.341 423.484 340.763 424.51 339.306C425.65 337.85 426.676 336.575 427.587 335.483C428.271 334.754 428.613 334.876 428.613 335.847C428.613 336.454 428.442 337.243 428.1 338.214C427.872 339.185 427.588 339.913 427.246 340.399C426.106 342.098 424.738 343.98 423.142 346.043C421.661 348.107 419.894 349.867 417.842 351.324C415.791 352.659 413.34 353.327 410.49 353.327ZM497.441 255.003C496.187 262.772 494.249 270.358 491.628 277.763C489.006 285.046 486.1 291.905 482.908 298.338C479.717 304.65 476.639 310.416 473.676 315.636C470.712 320.734 468.262 324.983 466.324 328.381C464.5 331.659 463.589 333.844 463.589 334.936C463.589 334.936 463.703 335.665 463.931 337.121C464.159 338.578 464.558 340.277 465.127 342.22C465.697 344.04 466.438 345.679 467.35 347.136C468.262 348.592 469.345 349.321 470.598 349.321C472.194 349.321 473.961 348.774 475.898 347.682C477.95 346.468 479.546 345.376 480.686 344.405C482.965 342.341 484.39 341.309 484.96 341.309C485.302 341.309 485.473 341.491 485.473 341.855C485.473 342.341 485.188 343.13 484.618 344.222C484.048 345.315 483.478 346.104 482.908 346.589C481.085 348.289 479.204 349.928 477.266 351.506C475.443 352.962 473.562 353.691 471.624 353.691C468.547 353.691 466.153 352.72 464.444 350.777C462.734 348.714 461.48 346.468 460.682 344.04C459.884 341.613 459.2 339.731 458.631 338.396C455.781 339.731 453.273 341.188 451.108 342.766C449.056 344.344 447.062 345.679 445.124 346.772C443.186 347.864 441.021 348.41 438.627 348.41C434.638 348.41 431.161 347.014 428.198 344.222C425.234 341.309 423.753 338.153 423.753 334.754C423.753 328.199 425.063 322.919 427.685 318.913C430.42 314.907 433.897 311.994 438.114 310.173C442.331 308.231 446.606 307.26 450.937 307.26C453.9 307.26 456.636 307.624 459.143 308.352C460.853 301.798 462.335 296.578 463.589 292.694C464.842 288.688 466.096 285.107 467.35 281.951C468.718 278.673 470.257 274.971 471.966 270.844C473.562 266.717 475.5 262.59 477.779 258.462C480.173 254.214 482.794 250.208 485.644 246.445C486.67 244.988 487.695 243.774 488.721 242.803C489.861 241.832 491.172 241.347 492.654 241.347C494.819 241.347 496.244 242.136 496.928 243.714C497.612 245.17 497.954 246.931 497.954 248.994C497.954 251.179 497.783 253.182 497.441 255.003ZM493.337 252.089C491.856 253.303 489.633 256.277 486.67 261.011C483.82 265.624 481.028 270.905 478.292 276.853C476.24 281.465 474.189 286.139 472.137 290.873C470.086 295.485 468.319 299.552 466.837 303.072C465.355 306.592 464.33 308.959 463.76 310.173C464.557 311.023 464.956 312.722 464.956 315.272C464.956 317.821 464.614 320.552 463.931 323.465C464.5 322.616 465.982 320.188 468.376 316.182C470.769 312.176 473.505 307.26 476.582 301.433C479.774 295.607 482.623 289.598 485.131 283.407C486.271 280.494 487.467 277.035 488.721 273.029C489.975 269.023 491.058 265.139 491.97 261.376C492.882 257.491 493.337 254.396 493.337 252.089ZM456.408 321.098C456.522 320.127 456.636 319.217 456.75 318.367C456.864 317.517 456.921 316.789 456.921 316.182C456.921 314.725 456.522 313.936 455.724 313.815C454.698 313.451 453.729 313.269 452.818 313.269C449.626 313.269 446.606 314.665 443.756 317.457C441.021 320.248 438.513 323.405 436.233 326.925C435.778 327.653 435.208 328.988 434.524 330.931C433.954 332.873 433.669 334.876 433.669 336.939C433.669 338.517 433.954 339.974 434.524 341.309C435.094 342.523 436.062 343.433 437.43 344.04C437.658 344.162 438.114 344.222 438.798 344.222C440.394 344.222 442.331 343.555 444.611 342.22C446.891 340.884 449.056 339.124 451.108 336.939C453.273 334.633 454.812 332.144 455.724 329.474C456.18 328.26 456.351 326.925 456.237 325.468C456.237 324.011 456.294 322.555 456.408 321.098ZM588.155 344.769C586.787 346.225 584.679 348.289 581.829 350.959C579.094 353.509 576.187 355.936 573.11 358.243C570.146 360.549 567.639 362.006 565.587 362.613C563.194 363.341 561.028 364.13 559.09 364.98C557.153 365.829 555.044 366.558 552.764 367.165C550.485 367.893 547.635 368.257 544.216 368.257C539.429 368.257 534.3 367.347 528.829 365.526C523.358 363.826 518.228 361.702 513.441 359.153C508.654 356.725 504.779 354.358 501.815 352.052C495.888 347.318 491.329 340.945 488.138 332.933C485.06 324.8 483.521 315.272 483.521 304.347C483.521 301.312 483.806 298.035 484.376 294.514C484.946 290.873 485.63 287.474 486.428 284.318C487.226 281.04 488.024 278.431 488.822 276.488C491.215 270.662 494.122 264.957 497.541 259.373C501.074 253.789 505.634 249.116 511.219 245.353C514.182 243.289 517.943 241.165 522.503 238.98C527.062 236.673 533.046 235.52 540.455 235.52C541.48 235.52 542.563 235.581 543.703 235.702C544.843 235.702 545.983 235.763 547.122 235.884C553.391 236.613 558.919 238.676 563.706 242.075C568.608 245.474 572.426 249.055 575.161 252.818C576.415 254.517 577.498 256.763 578.41 259.555C579.322 262.347 579.778 265.321 579.778 268.477C579.778 269.933 579.664 271.39 579.436 272.847C579.322 274.303 578.98 275.76 578.41 277.217C577.042 281.708 575.161 285.896 572.768 289.78C570.488 293.665 567.639 296.821 564.219 299.248C560.8 301.555 556.697 302.708 551.909 302.708C547.692 302.708 544.444 302.405 542.164 301.798C539.885 301.191 538.004 300.22 536.522 298.884C535.04 297.428 533.331 295.485 531.393 293.058C529.797 290.994 528.715 288.688 528.145 286.139C527.575 283.468 527.29 280.98 527.29 278.673C527.29 276.367 527.29 274.728 527.29 273.757C527.29 270.844 528.43 267.931 530.709 265.017C533.103 261.983 535.895 259.433 539.087 257.37C542.392 255.306 545.299 254.274 547.806 254.274C550.086 254.274 551.91 255.246 553.277 257.188C554.645 259.009 555.614 261.072 556.184 263.379C556.868 265.685 557.21 267.506 557.21 268.841C557.21 270.662 556.982 272.725 556.526 275.032C556.07 277.338 554.531 279.523 551.909 281.587C551.454 282.072 550.998 282.315 550.542 282.315C549.744 282.315 549.345 281.708 549.345 280.494C549.345 279.887 549.516 279.159 549.858 278.309C550.2 277.459 550.77 276.731 551.568 276.124C552.479 275.396 553.049 274.546 553.277 273.575C553.505 272.604 553.619 271.694 553.619 270.844C553.619 270.116 553.562 269.448 553.448 268.841C553.448 268.113 553.448 267.506 553.448 267.02C553.448 266.049 552.935 264.714 551.909 263.014C550.884 261.194 549.516 260.283 547.806 260.283C546.097 260.283 544.045 261.011 541.651 262.468C539.372 263.803 537.377 265.503 535.667 267.566C533.958 269.63 533.103 271.694 533.103 273.757C533.103 274.971 533.787 276.853 535.154 279.402C536.636 281.951 538.289 284.439 540.113 286.867C541.594 288.688 542.62 290.144 543.19 291.237C543.874 292.329 544.786 293.118 545.926 293.604C547.179 293.968 549.459 294.15 552.764 294.15C558.463 294.15 562.795 292.329 565.758 288.688C568.722 284.925 571.115 280.433 572.939 275.214C573.623 272.786 573.965 270.48 573.965 268.295C573.965 265.867 573.623 263.621 572.939 261.558C572.369 259.494 571.628 257.855 570.716 256.642C568.437 253.364 565.758 250.936 562.681 249.358C559.603 247.659 555.386 246.566 550.029 246.081C549.003 245.959 547.977 245.899 546.951 245.899C546.04 245.777 545.128 245.717 544.216 245.717C537.377 245.717 531.906 246.809 527.803 248.994C523.813 251.179 520.337 253.182 517.374 255.003C512.244 258.28 508.141 262.468 505.064 267.566C501.986 272.665 499.308 277.884 497.028 283.225C496.344 284.925 495.603 287.292 494.806 290.326C494.122 293.361 493.552 296.517 493.096 299.795C492.64 303.072 492.412 306.046 492.412 308.717C492.412 318.428 493.21 326.196 494.806 332.023C496.401 337.85 499.878 342.887 505.235 347.136C508.084 349.321 511.732 351.566 516.177 353.873C520.622 356.179 525.295 358.121 530.196 359.699C535.211 361.399 539.885 362.248 544.216 362.248C548.889 362.248 552.536 361.581 555.158 360.246C557.779 359.032 560.686 357.879 563.877 356.786C565.815 356.179 568.266 354.965 571.229 353.144C574.193 351.324 577.042 349.381 579.778 347.318C582.627 345.254 584.679 343.616 585.933 342.402C586.73 341.552 587.528 341.127 588.326 341.127C589.01 341.127 589.352 341.491 589.352 342.22C589.352 343.069 588.953 343.919 588.155 344.769ZM629.161 321.098C629.161 323.647 628.648 326.985 627.622 331.113C626.596 335.24 625.228 339.124 623.519 342.766C621.923 346.529 620.099 349.321 618.048 351.142C616.11 352.841 614.229 354.055 612.406 354.783C610.582 355.39 609.1 355.997 607.96 356.604C607.504 356.725 606.991 356.847 606.422 356.968C605.966 357.211 605.453 357.332 604.883 357.332C602.603 357.332 600.836 356.665 599.582 355.329C599.126 354.844 598.385 354.358 597.36 353.873C596.448 353.387 595.593 352.538 594.795 351.324C593.997 350.11 593.598 348.107 593.598 345.315C593.598 342.402 593.94 339.61 594.624 336.939C592.572 334.39 591.547 331.598 591.547 328.564C591.547 326.743 591.946 324.983 592.743 323.283C594.909 318.913 597.645 315.514 600.95 313.087C604.256 310.659 607.39 308.959 610.354 307.988C613.431 307.017 615.54 306.532 616.68 306.532C620.897 306.532 624.031 307.988 626.083 310.902C628.135 313.815 629.161 317.214 629.161 321.098ZM622.151 322.009C622.151 319.217 621.239 316.91 619.415 315.09C617.706 313.269 615.54 312.358 612.918 312.358C610.753 312.358 608.53 313.087 606.251 314.543C604.085 315.879 602.204 317.578 600.608 319.642C599.012 321.705 597.987 323.708 597.531 325.65C597.417 326.379 597.303 327.046 597.189 327.653C597.189 328.26 597.189 328.867 597.189 329.474C598.442 326.561 599.753 324.133 601.121 322.191C602.603 320.248 603.686 319.035 604.37 318.549C604.94 318.064 605.681 317.821 606.593 317.821C607.846 317.821 608.473 318.185 608.473 318.913C608.473 319.399 607.846 320.309 606.593 321.644C605.453 322.858 604.142 324.497 602.66 326.561C601.178 328.503 599.924 330.931 598.898 333.844C599.81 335.058 601.007 335.968 602.489 336.575C604.085 337.061 605.624 337.303 607.105 337.303C608.701 337.303 610.183 337 611.551 336.393C613.032 335.665 614.001 334.694 614.457 333.48C614.571 333.116 614.628 332.812 614.628 332.569C614.742 332.205 614.799 331.902 614.799 331.659C614.799 330.445 614.286 329.717 613.26 329.474C612.349 329.11 611.437 328.988 610.525 329.11H610.183C608.929 329.11 608.302 328.806 608.302 328.199C608.302 327.835 608.416 327.471 608.644 327.107C608.986 326.743 609.271 326.439 609.499 326.196C610.183 325.468 610.924 325.104 611.722 325.104C612.861 325.104 614.115 325.893 615.483 327.471C616.737 329.292 617.364 331.052 617.364 332.751C617.364 334.936 616.338 336.636 614.286 337.85C612.349 339.064 610.183 339.913 607.789 340.399C605.396 340.884 603.572 341.127 602.318 341.127C600.494 341.127 599.012 340.702 597.873 339.853C597.759 340.095 597.702 340.642 597.702 341.491C597.702 344.89 598.556 347.196 600.266 348.41C601.976 349.503 603.401 350.353 604.541 350.959C605.225 351.202 605.795 351.324 606.251 351.324C607.846 351.324 609.499 350.595 611.209 349.139C613.032 347.682 614.628 345.679 615.996 343.13C617.022 341.188 617.991 338.881 618.902 336.211C619.814 333.54 620.555 330.931 621.125 328.381C621.809 325.711 622.151 323.587 622.151 322.009ZM665.953 322.191C665.953 324.983 665.725 327.046 665.269 328.381C664.928 329.717 664.415 330.809 663.731 331.659C663.161 332.509 662.534 333.48 661.85 334.572C661.166 335.665 660.596 337.303 660.14 339.488C659.798 341.552 659.627 344.587 659.627 348.592C659.627 350.17 660.197 351.445 661.337 352.416C662.477 353.387 663.788 353.873 665.269 353.873C665.953 353.873 666.295 354.116 666.295 354.601C666.295 355.208 665.839 355.936 664.928 356.786C664.13 357.757 663.389 358.243 662.705 358.243C660.197 358.243 658.374 357.211 657.234 355.147C656.094 352.962 655.524 350.656 655.524 348.228C655.524 344.222 655.638 341.066 655.866 338.76C656.094 336.332 656.322 334.087 656.55 332.023C656.778 329.838 656.835 327.168 656.721 324.011C656.607 321.827 656.322 320.127 655.866 318.913C655.41 317.578 654.213 316.91 652.276 316.91C651.25 316.91 650.509 317.092 650.053 317.457C649.711 317.821 649.255 318.428 648.685 319.277C647.432 321.22 646.349 323.951 645.437 327.471C644.639 330.87 643.955 334.511 643.385 338.396C642.929 342.159 642.473 345.558 642.018 348.592C641.676 351.506 641.334 353.448 640.992 354.419C640.65 355.269 640.194 355.876 639.624 356.24C639.168 356.604 638.655 356.786 638.085 356.786C637.629 356.786 637.173 356.665 636.717 356.422C636.376 356.3 636.091 356.179 635.863 356.058C635.293 355.694 635.008 355.087 635.008 354.237C635.008 353.387 635.179 352.416 635.521 351.324C635.977 350.11 636.319 349.017 636.546 348.046C636.774 347.075 637.116 345.376 637.572 342.948C638.142 340.399 638.712 337.789 639.282 335.118C639.852 332.327 640.308 329.959 640.65 328.017C641.106 325.954 641.334 324.922 641.334 324.922C640.764 324.922 640.194 324.983 639.624 325.104C639.054 325.104 638.484 325.104 637.914 325.104C636.205 325.104 635.35 324.376 635.35 322.919C635.35 321.948 635.692 320.491 636.375 318.549C637.059 316.607 638.313 314.058 640.137 310.902C640.707 309.931 641.847 308.717 643.556 307.26C645.266 305.803 646.691 305.196 647.831 305.439C648.286 305.196 648.685 305.075 649.027 305.075C649.369 305.075 649.654 305.075 649.882 305.075C651.136 305.075 651.82 305.561 651.934 306.532C652.162 307.381 652.219 308.292 652.105 309.263C651.991 310.113 652.048 310.477 652.276 310.355C653.871 309.627 655.467 309.263 657.063 309.263C659.456 309.263 661.508 310.295 663.218 312.358C665.042 314.3 665.953 317.578 665.953 322.191ZM711.032 322.191C711.032 324.983 710.804 327.046 710.349 328.381C710.007 329.717 709.494 330.809 708.81 331.659C708.24 332.509 707.613 333.48 706.929 334.572C706.245 335.665 705.675 337.303 705.219 339.488C704.878 341.552 704.707 344.587 704.707 348.592C704.707 350.17 705.276 351.445 706.416 352.416C707.556 353.387 708.867 353.873 710.349 353.873C711.032 353.873 711.374 354.116 711.374 354.601C711.374 355.208 710.918 355.936 710.007 356.786C709.209 357.757 708.468 358.243 707.784 358.243C705.276 358.243 703.453 357.211 702.313 355.147C701.173 352.962 700.603 350.656 700.603 348.228C700.603 344.222 700.717 341.066 700.945 338.76C701.173 336.332 701.401 334.087 701.629 332.023C701.857 329.838 701.914 327.168 701.8 324.011C701.686 321.827 701.401 320.127 700.945 318.913C700.489 317.578 699.292 316.91 697.355 316.91C696.329 316.91 695.588 317.092 695.132 317.457C694.79 317.821 694.334 318.428 693.764 319.277C692.511 321.22 691.428 323.951 690.516 327.471C689.718 330.87 689.034 334.511 688.464 338.396C688.008 342.159 687.553 345.558 687.097 348.592C686.755 351.506 686.413 353.448 686.071 354.419C685.729 355.269 685.273 355.876 684.703 356.24C684.247 356.604 683.734 356.786 683.164 356.786C682.708 356.786 682.252 356.665 681.797 356.422C681.455 356.3 681.17 356.179 680.942 356.058C680.372 355.694 680.087 355.087 680.087 354.237C680.087 353.387 680.258 352.416 680.6 351.324C681.056 350.11 681.398 349.017 681.626 348.046C681.854 347.075 682.196 345.376 682.651 342.948C683.221 340.399 683.791 337.789 684.361 335.118C684.931 332.327 685.387 329.959 685.729 328.017C686.185 325.954 686.413 324.922 686.413 324.922C685.843 324.922 685.273 324.983 684.703 325.104C684.133 325.104 683.563 325.104 682.993 325.104C681.284 325.104 680.429 324.376 680.429 322.919C680.429 321.948 680.771 320.491 681.455 318.549C682.139 316.607 683.392 314.058 685.216 310.902C685.786 309.931 686.926 308.717 688.635 307.26C690.345 305.803 691.77 305.196 692.91 305.439C693.366 305.196 693.764 305.075 694.106 305.075C694.448 305.075 694.733 305.075 694.961 305.075C696.215 305.075 696.899 305.561 697.013 306.532C697.241 307.381 697.298 308.292 697.184 309.263C697.07 310.113 697.127 310.477 697.355 310.355C698.951 309.627 700.546 309.263 702.142 309.263C704.536 309.263 706.587 310.295 708.297 312.358C710.121 314.3 711.032 317.578 711.032 322.191ZM762.779 333.116C761.298 335.786 759.417 338.699 757.137 341.855C754.858 344.89 752.464 347.5 749.957 349.685C747.563 351.87 745.283 352.962 743.118 352.962C739.584 352.962 736.792 352.78 734.74 352.416C732.803 351.931 731.207 351.263 729.953 350.413C727.788 348.835 726.021 346.772 724.653 344.222C723.285 341.673 722.487 339.063 722.259 336.393C722.146 335.665 722.088 334.936 722.088 334.208C722.088 333.48 722.088 332.812 722.088 332.205C722.088 325.043 723.399 318.731 726.021 313.269C728.642 307.806 732.347 304.529 737.134 303.436C738.616 303.194 739.755 303.861 740.553 305.439C741.351 306.896 741.75 308.899 741.75 311.448C741.75 315.332 740.781 319.52 738.844 324.011C738.046 325.832 737.191 327.592 736.279 329.292C735.481 330.87 734.797 332.144 734.227 333.116C732.746 335.422 731.606 337 730.808 337.85C730.124 338.578 729.782 339.306 729.782 340.035C729.782 341.977 730.922 343.858 733.202 345.679C735.481 347.5 739.015 348.41 743.802 348.41C745.625 348.41 747.506 347.561 749.444 345.861C751.381 344.162 753.262 342.038 755.086 339.488C757.023 336.939 758.733 334.39 760.215 331.841C760.899 330.627 761.526 330.02 762.096 330.02C762.779 330.02 763.121 330.566 763.121 331.659C763.121 332.144 763.007 332.63 762.779 333.116ZM737.134 310.173C736.678 309.445 735.709 309.627 734.227 310.72C732.86 311.691 731.606 313.997 730.466 317.639C729.668 320.309 729.269 323.405 729.269 326.925C729.269 327.896 729.269 328.867 729.269 329.838C729.383 330.809 729.497 331.78 729.611 332.751C731.549 329.231 732.917 326.621 733.714 324.922C734.626 323.101 735.31 321.22 735.766 319.277C735.994 318.306 736.336 317.092 736.792 315.636C737.362 314.179 737.647 312.905 737.647 311.812C737.647 311.084 737.476 310.537 737.134 310.173ZM787.678 343.312C784.829 347.196 782.15 349.928 779.643 351.506C777.135 353.084 774.742 354.055 772.462 354.419C770.182 354.662 767.789 354.783 765.281 354.783C761.406 354.783 758.385 353.448 756.22 350.777C754.168 347.985 753.028 344.769 752.8 341.127C752.686 338.699 752.8 335.786 753.142 332.387C753.598 328.988 754.738 325.286 756.562 321.28C758.271 317.517 760.095 314.786 762.033 313.087C763.971 311.266 765.851 309.991 767.675 309.263C769.498 308.535 770.98 307.928 772.12 307.442C773.032 307.078 774.001 306.896 775.027 306.896C777.306 306.896 779.13 307.503 780.498 308.717C781.067 309.202 781.409 309.87 781.523 310.72C781.751 311.448 781.865 312.237 781.865 313.087C781.865 313.572 781.808 314.118 781.694 314.725C781.694 315.211 781.637 315.696 781.523 316.182C781.295 317.76 780.612 319.824 779.472 322.373C778.446 324.8 777.477 327.168 776.565 329.474C775.881 330.202 775.141 330.566 774.343 330.566C773.431 330.566 773.203 330.02 773.659 328.928C774.229 326.5 774.97 324.497 775.881 322.919C776.907 321.22 777.42 319.763 777.42 318.549C777.534 318.185 777.591 317.821 777.591 317.457C777.591 317.092 777.591 316.789 777.591 316.546C777.591 314.847 776.907 313.694 775.539 313.087C774.856 312.844 774.343 312.722 774.001 312.722C772.519 312.722 770.809 313.451 768.872 314.907C766.934 316.364 765.338 318.367 764.084 320.916C762.603 323.708 761.52 326.864 760.836 330.384C760.266 333.905 759.981 336.879 759.981 339.306C759.981 342.22 760.95 344.647 762.888 346.589C764.939 348.41 767.39 349.199 770.239 348.957C773.431 348.592 776.508 347.682 779.472 346.225C782.549 344.769 785.171 342.523 787.336 339.488C787.678 339.246 788.02 339.124 788.362 339.124C788.704 339.124 788.875 339.367 788.875 339.853C788.875 340.338 788.704 341.006 788.362 341.855C788.134 342.584 787.906 343.069 787.678 343.312ZM831.714 283.407C831.714 283.407 831.714 283.832 831.714 284.682C831.828 285.532 831.601 286.564 831.031 287.777C830.461 288.991 829.207 290.205 827.269 291.419C826.585 291.905 825.332 292.269 823.508 292.511C821.684 292.754 819.633 292.936 817.353 293.058C816.099 296.578 814.732 300.159 813.25 303.8C811.768 307.321 810.229 310.659 808.634 313.815C806.24 318.67 804.188 322.251 802.479 324.558C800.883 326.864 799.629 328.624 798.717 329.838C797.805 330.931 797.179 332.266 796.837 333.844C796.723 334.572 796.609 335.24 796.495 335.847C796.495 336.454 796.495 337.061 796.495 337.668C796.495 342.159 797.691 345.436 800.085 347.5C802.593 349.563 804.986 350.595 807.266 350.595C809.887 350.595 812.509 349.624 815.13 347.682C817.752 345.618 819.918 343.737 821.627 342.037C822.995 340.824 824.021 340.217 824.705 340.217C825.161 340.217 825.389 340.459 825.389 340.945C825.389 341.795 824.762 343.13 823.508 344.951C822.824 345.922 821.684 347.257 820.089 348.957C818.493 350.656 816.498 352.234 814.105 353.691C811.711 355.026 809.032 355.694 806.069 355.694C800.142 355.694 796.153 354.237 794.101 351.324C792.163 348.41 791.195 343.555 791.195 336.757C791.195 331.416 791.708 324.861 792.733 317.092C793.759 309.202 795.355 300.887 797.52 292.147C796.951 292.147 796.381 292.147 795.811 292.147C795.241 292.026 794.728 291.965 794.272 291.965C792.79 291.965 791.651 292.208 790.853 292.694C790.169 293.058 789.599 293.24 789.143 293.24C788.003 293.24 787.433 292.329 787.433 290.509C787.433 288.445 787.946 286.867 788.972 285.774C789.77 284.925 791.138 284.5 793.075 284.5C794.557 284.5 796.552 284.803 799.059 285.41C799.287 284.682 799.515 284.014 799.743 283.407C799.971 282.8 800.142 282.194 800.256 281.587C800.484 280.373 800.712 279.402 800.94 278.673C801.168 277.945 801.453 277.035 801.795 275.942C803.732 269.751 805.841 263.803 808.121 258.098C810.4 252.393 813.706 247.295 818.037 242.803C818.835 241.468 819.918 240.8 821.285 240.8C822.311 240.8 823.223 241.286 824.021 242.257C824.819 243.107 825.161 244.139 825.047 245.353C825.047 245.353 824.99 246.87 824.876 249.905C824.762 252.939 824.534 256.642 824.192 261.011C823.85 265.26 823.337 269.327 822.653 273.211C822.311 275.517 821.798 278.006 821.114 280.676C820.544 283.225 819.804 285.835 818.892 288.506C819.576 288.627 820.203 288.748 820.772 288.87C821.456 288.87 822.083 288.87 822.653 288.87C824.363 288.87 825.674 288.627 826.585 288.142C827.611 287.535 828.181 286.928 828.295 286.321C828.523 285.714 828.637 285.41 828.637 285.41C828.637 282.983 829.207 281.769 830.347 281.769C830.917 281.769 831.373 282.315 831.714 283.407ZM819.576 253C818.892 252.879 817.809 254.274 816.327 257.188C814.845 260.101 813.25 263.925 811.54 268.659C809.83 273.393 808.178 278.431 806.582 283.772C806.468 284.257 806.354 284.743 806.24 285.228C806.126 285.592 806.012 286.017 805.898 286.503C806.696 286.746 807.494 286.928 808.292 287.049C809.089 287.17 809.944 287.353 810.856 287.595C811.312 287.717 811.825 287.777 812.395 287.777C812.965 287.777 813.478 287.899 813.934 288.142C814.39 286.806 814.788 285.653 815.13 284.682C815.472 283.59 815.814 282.618 816.156 281.769C817.41 277.277 818.436 272.665 819.234 267.931C820.032 263.196 820.43 259.494 820.43 256.824C820.43 254.639 820.146 253.364 819.576 253ZM812.053 293.058H808.976C808.178 293.058 807.38 293.058 806.582 293.058C805.898 293.058 805.214 292.997 804.53 292.876C803.504 297.488 802.479 302.465 801.453 307.806C800.541 313.026 799.8 317.699 799.23 321.826C800.598 320.127 802.023 317.699 803.504 314.543C804.986 311.387 806.468 307.928 807.95 304.165C809.431 300.28 810.799 296.578 812.053 293.058Z" fill="white"/>
<path d="M138.355 394.453C141.193 383.504 146.709 370.787 153.251 357.394C156.969 349.611 162.363 342.496 169.568 336.104C171.899 334.034 173.684 331.315 174.614 328.199C176.698 321.214 179.666 313.969 183.473 306.476C184.588 304.28 186.402 302.592 188.577 301.762C193.765 299.783 198.826 298.459 203.738 297.896C206.76 297.549 209.4 295.48 210.591 292.432C211.123 291.069 211.557 289.703 211.892 288.333C212.555 285.614 212.257 282.714 211.115 280.189C204.475 265.514 195.489 250.809 184.559 236.08C183.68 234.896 183.744 233.198 184.681 232.068C192.891 222.165 194.42 203.871 193.629 182.662C193.566 180.951 194.464 179.373 195.895 178.667C203.73 174.806 215.601 174.371 228.459 174.775L236.562 257.346C232.495 262.6 229.951 267.707 229.942 272.775C230.134 286.475 235.808 292.332 245.49 292.456C256.435 286.522 255.762 279.244 247.051 271.035C242.308 267.168 236.238 272.115 241.625 277.2C246.559 281.696 247.72 284.902 241.786 285.683C236.926 284.198 234.947 280.777 235.45 275.691C238.36 262.489 247.101 254.376 258.957 248.981C290.093 236.252 305.28 217.461 303.059 192.052C302.428 181.978 299.76 174.078 293.77 169.725C296.44 156.198 294.177 146.65 286.447 141.509C290.409 139.795 293.472 137.552 295.759 134.852L349.791 134.831L346.459 144.878C351.188 140.382 358.819 136.135 364.969 133.645C358.817 131.163 351.184 126.922 346.452 122.429L349.789 132.471L297.491 132.49C302.272 124.918 302.139 114.456 299.101 102.287C290.367 79.0769 270.828 64.8296 249.762 46.4646C237.195 35.5081 228.231 24.4685 227.444 14.1773C227.049 9.01892 231.811 5.69218 235.645 8.14796C238.453 9.9465 239.829 14.8476 236.614 15.9368C235.14 16.4363 233.454 14.3299 231.978 16.6979C230.678 18.7845 233.042 21.8343 235.43 24.1026C237.39 25.9648 243.996 22.5087 245.116 19.0232C248.681 7.93475 242.387 1.34384 234.671 0.120684C227.565 -1.00585 223.262 5.95001 222.275 12.8239C221.54 17.948 223.448 26.8621 231.021 37.6509L223.482 111.841C218.12 112.816 213.208 120.185 213.832 128.762C214.002 131.085 213.375 133.399 212.128 135.292C209.691 138.992 207.315 141.208 204.883 142.249C201.167 143.837 196.349 141.954 194.313 138.213C190.548 131.295 185.907 126.449 179.631 125.478C178.403 125.289 177.242 124.732 176.331 123.816C171.036 118.494 169.164 114.621 171.696 112.611C172.756 111.77 174.161 111.675 175.371 112.222C185.769 116.923 193.743 114.697 199.616 106.469C200.139 105.734 200.757 105.082 201.444 104.531C207.416 99.7394 208.855 92.2006 207 82.6651C206.467 79.9248 206.629 77.0825 207.483 74.4399C207.885 73.1956 207.453 72.3423 206.472 71.7475C205.724 71.2947 205.005 70.7885 204.362 70.1731L198.841 64.8903C198.217 64.2943 197.856 63.4306 197.874 62.5269C197.893 61.5467 197.491 60.6752 196.79 59.8813C196.708 59.789 196.628 59.6925 196.556 59.5918C194.361 56.5522 192.188 53.8168 190.06 51.6806C188.861 50.4771 188.83 48.3903 190.016 47.1714C191.031 46.128 192.083 45.9671 193.181 46.8992C194.358 47.8979 194.501 49.7932 193.675 51.1467C192.952 52.3328 193.647 53.7312 195.978 55.3748C196.997 56.0934 198.329 56.0697 199.308 55.288C201.047 53.9005 201.923 52.2339 201.536 50.1571C201.428 49.5779 201.155 49.0466 200.785 48.6148C199.418 47.0221 198.223 45.9892 197.303 45.8581C196.67 45.7676 196.084 45.4184 195.636 44.9215C195.601 44.8825 195.566 44.8433 195.533 44.8039C194.551 43.6616 194.517 41.8858 195.422 40.6715C197.87 37.3871 200.346 38.156 202.845 42.337C203.553 43.5217 203.403 45.0701 202.545 46.1302C201.335 47.6243 201.451 48.8892 204.16 49.7057C207.91 50.853 210.687 49.8621 212.621 47.0199C212.707 46.8936 212.787 46.7591 212.858 46.6221C215.363 41.7865 213.682 36.3719 206.669 30.2198C206.553 30.1179 206.43 30.0199 206.305 29.9319C202.926 27.5621 199.094 26.9626 194.749 28.3775C193.828 28.6775 192.887 27.9956 192.759 26.9572C191.692 18.2843 187.941 13.6844 180.921 14.0478C180.314 14.0792 179.707 14.0642 179.102 14.0102C176.236 13.7548 173.824 14.4756 172.097 16.6666C171.08 17.9582 169.136 17.5494 168.745 15.9009C168.643 15.4738 168.595 14.985 168.598 14.437C168.6 13.9798 168.488 13.5263 168.257 13.1445C165.139 7.98427 160.885 7.82756 155.949 10.6745C154.376 11.5821 152.485 11.5798 150.949 10.5996C137.29 1.88541 126.642 4.28688 119.218 18.5893C119.123 18.7717 119.09 18.9861 119.118 19.1935C119.568 22.6001 118.812 25.3171 116.259 27.0081C116.095 27.1166 115.898 27.1621 115.708 27.1393C113.748 26.9053 111.988 26.1873 110.398 25.0577C110.295 24.9849 110.205 24.8907 110.133 24.7825C109.077 23.1793 108.659 21.5803 109.081 19.9867C109.132 19.7951 109.25 19.6306 109.4 19.5162C110.184 18.9179 111.125 18.9199 112.21 19.4751C112.429 19.5875 112.691 19.5802 112.903 19.4517C113.742 18.9435 113.979 18.1915 113.825 17.2811C113.802 17.151 113.752 17.025 113.687 16.9136C111.675 13.4979 109.568 12.9243 107.349 15.6812C107.303 15.7399 107.258 15.8059 107.221 15.8727C105.081 19.7112 105.706 23.4825 109.19 27.1842C109.577 27.5963 109.488 28.2854 109.02 28.5821C109.004 28.5921 108.989 28.6023 108.974 28.6131C108.493 28.9559 108.601 29.7559 109.118 30.0287C109.915 30.4489 110.556 30.9517 111.056 31.5306C111.583 32.1408 111.067 33.1357 110.322 32.9286C109.093 32.587 107.956 32.5394 106.915 32.7969C106.298 32.9497 106.062 33.7678 106.463 34.3022C107.628 35.8558 109.094 37.3607 110.774 38.8309C111.347 39.3322 111.146 40.3254 110.436 40.5326C102.639 42.8089 98.5056 48.4151 99.7468 58.9041C99.756 58.9812 99.7577 59.0613 99.7525 59.139C99.2721 66.0672 101.275 70.7127 108.08 70.9415C108.882 70.9688 109.648 71.3214 110.231 71.9217C113.158 74.9363 112.736 78.1665 109.243 81.5932C108.09 82.7239 107.515 84.4064 107.703 86.0839C108.595 94.0609 111.553 98.9601 118.493 97.9289C119.021 97.8506 119.563 97.9356 120.043 98.1869C121.447 98.9212 121.775 100.03 120.056 101.849C114.515 107.157 115.666 111.424 122.284 114.841C122.73 115.072 123.161 115.344 123.556 115.669C127.034 118.528 131.492 119.708 136.41 120.101C137.287 120.171 138.156 120.377 138.966 120.751C141.103 121.738 142.156 123.267 141.696 125.554C141.573 126.167 141.49 126.793 141.461 127.42C141.327 130.318 140.239 132.525 137.959 133.872C136.687 134.622 135.117 134.405 134.008 133.392C127.777 127.7 121.722 121.194 115.805 114.036C113.825 111.64 111.264 109.906 108.426 108.992C98.6749 105.854 89.2871 104.082 80.2174 103.509C79.8126 103.483 79.4073 103.484 79.0022 103.503C60.2343 104.375 42.3807 98.6196 25.8527 83.258C25.3896 82.8277 24.9471 82.3658 24.533 81.8797C10.8231 65.7795 5.58166 47.4105 5.54895 27.6463C5.54815 27.1643 4.99917 26.9335 4.71069 27.2989C-3.84055 38.1326 0.225515 52.839 9.11801 69.0278C9.52708 69.7725 8.93729 70.6957 8.15579 70.5282C6.91118 70.2617 5.81549 70.161 4.84826 70.2022C4.23414 70.2289 3.81098 70.879 4.00623 71.5138C7.50428 82.8902 15.7966 94.2108 27.3838 105.494C28.274 106.361 28.2965 107.92 27.362 108.73C27.3513 108.739 27.3405 108.748 27.3296 108.758C26.6012 109.368 25.5661 109.294 24.8739 108.635L11.7545 96.1439C10.6272 95.0702 8.91125 96.2477 9.30494 97.8215C13.5126 114.648 22.7995 128.234 38.0715 138.004C43.0557 141.282 47.7375 143.58 51.9327 144.301C52.3764 144.378 52.7915 144.59 53.1438 144.893C55.0643 146.549 55.3122 147.854 53.4672 148.719C52.9887 148.944 52.4579 149.017 51.9455 148.915C47.8721 148.097 43.7083 146.526 39.474 144.367C37.9527 143.591 36.3884 145.333 37.1192 146.981C44.5576 163.755 58.184 170.709 75.3597 172.032C75.8138 172.066 75.895 172.754 75.4625 172.909L65.3663 176.525C64.5511 176.817 64.3563 177.975 65.0193 178.568C76.3037 188.67 89.4416 187.249 103.415 180.638C103.65 180.527 103.916 180.671 103.985 180.939C104.802 184.101 103.881 187.117 101.299 189.991C101.019 190.302 101.262 190.823 101.657 190.765C106.514 190.045 111.259 188.268 115.903 185.542C116.705 185.07 117.705 185.109 118.437 185.701C118.443 185.705 118.449 185.71 118.454 185.714C118.514 185.764 118.571 185.815 118.625 185.87C119.526 186.778 119.415 188.365 118.471 189.22C106.162 200.366 101.292 212.25 109.734 225.457C119.137 237.338 133.188 251.441 148.62 266.205C149.067 266.633 148.867 267.439 148.281 267.557C141.677 268.892 135.004 268.448 128.243 265.689C127.367 265.332 126.629 264.665 126.116 263.813C123.151 258.88 120.076 255.738 116.394 252.978C114.067 251.233 111.007 251.131 108.573 252.694C104.875 255.07 102.437 258.661 100.492 261.895C99.4699 263.595 97.645 264.496 95.7957 264.236C86.4594 262.926 77.8384 263.452 71.2844 268.982C69.031 271.774 68.6635 273.886 70.3541 275.258C71.2106 275.952 72.304 276.216 73.3621 276.06C81.4157 274.867 89.4446 275.455 97.4439 278.17C97.7265 278.265 97.9989 278.395 98.2605 278.546C104.556 282.194 112.258 284.081 120.933 284.749C132.875 284.53 144.475 286.741 155.745 291.313C159.719 292.586 158.677 295.547 153.402 299.934C152.669 300.544 152.034 301.283 151.516 302.114C149.791 304.881 148.077 307.733 147.14 316.852C147.068 317.551 147.07 318.259 147.142 318.958C147.627 323.622 146.728 327.73 143.857 331.045C142.457 332.661 140.547 333.619 138.522 333.876C136.205 334.17 134.241 334.83 132.616 335.837C128.941 338.114 127.445 343.028 128.922 347.344C129.702 349.624 130.932 351.764 132.516 353.793C133.863 355.519 134.391 357.829 133.977 360.05C132.944 365.602 131.555 370.773 129.6 375.333C128.729 377.365 128.652 379.7 129.431 381.777C131.26 386.646 133.302 391.059 135.61 394.906C136.324 396.097 138 395.822 138.355 394.453ZM225.336 146.906L225.894 153.668C222.407 153.027 219.12 151.717 218.873 149.721C218.654 147.94 221.692 147.04 225.336 146.906ZM280.613 132.497L242.091 132.512C241.968 132.512 241.852 132.539 241.741 132.58C240.244 123.933 232.652 113.006 225.753 111.822C225.724 111.817 225.694 111.816 225.665 111.811L232.936 40.2568C233.36 40.8099 233.794 41.3659 234.248 41.9275C237.995 46.5623 250.508 60.2048 263.37 73.345C278.862 89.172 283.967 116.676 280.613 132.497ZM254.605 152.905C247.13 151.757 239.432 153.957 231.13 154.123C230.216 154.142 229.175 154.094 228.095 153.981L227.512 146.914C229.119 146.981 230.743 147.182 232.18 147.511C239.102 147.835 241.445 143.875 241.979 136.377C242.014 135.889 242.015 135.381 241.993 134.861C242.026 134.864 242.058 134.872 242.093 134.872L280.024 134.857C279.224 137.613 278.125 139.909 276.737 141.581C275.462 143.117 273.986 142.766 272.142 143.027C269.263 143.434 267.642 146.534 268.53 148.713C269.666 151.501 269.88 154.424 266.243 154.966C263.322 155.401 254.605 152.905 254.605 152.905ZM238.505 254.954L230.649 174.887C231.337 174.965 232.018 175.101 232.687 175.299C243.847 178.605 256.887 176.939 271.057 172.284C272.994 171.648 275.102 172.015 276.726 173.328C288.688 182.994 286.715 206.859 272.73 221.559C261.049 233.839 247.213 244.704 238.505 254.954Z" fill="white"/>
</svg>
